<?xml version="1.0" encoding="utf-8"?>
<!-- Generator: Adobe Illustrator 28.2.0, SVG Export Plug-In . SVG Version: 6.00 Build 0)  -->
<svg version="1.1" id="Layer_1" xmlns="http://www.w3.org/2000/svg" xmlns:xlink="http://www.w3.org/1999/xlink" x="0px" y="0px"
	 viewBox="0 0 612 792" style="enable-background:new 0 0 612 792;" xml:space="preserve">
<style type="text/css">
	.st0{fill:#010101;}
</style>
<g>
	<g>
		<path d="M92.36,133.48c-0.76,0.73-1.95,1.35-2.19,2.22c-1,3.54-3.25,5.34-7.47,5.73c1.59-2.18,2.95-4.03,4.31-5.89
			c-0.24-0.22-0.48-0.43-0.73-0.65c-2.62,2.74-5.24,5.48-7.57,7.93c-1.94-1.15-3.44-2.03-6.36-3.76c2-0.84,3.61-1.52,5.23-2.19
			c-0.34-0.47-0.68-0.95-1.01-1.42c-4.24,1.41-8.48,2.81-13.57,4.5c0.97-1.74,1.45-2.6,2.19-3.93c-1.65,0.21-2.85,0.37-4.9,0.64
			c1.39-2.11,2.37-3.6,3.54-5.36c-2.84-0.7-5.52-1.36-9.47-2.34c1.61-1.15,2.45-1.75,3.43-2.46c-1.93-2.12-4.16-4.44-0.05-6.74
			c5.51,3.18,17.51,2.19,20.19-1.27c-3.3-2.43-6.62-4.87-9.93-7.31c0.04-0.46,0.09-0.93,0.13-1.39c9.12,1.33,18.12,1.98,25.96-3.99
			c-3.31-2.89-7.74-2.3-12.66-1.92c0.93-1.68,1.56-2.81,2.64-4.77c-2.23-0.18-4.1-0.39-5.97-0.45c-0.49-0.02-1.01,0.65-1.49,0.61
			c-1.66-0.12-3.3-0.41-4.95-0.64c0.96-1.47,1.72-3.16,2.94-4.37c1.49-1.47,3.38-2.55,6.06-4.5c-4.14-0.2-7.09-0.34-10.04-0.48
			c-0.04-0.43-0.08-0.86-0.11-1.29c0.94-0.4,1.88-0.81,2.4-1.03c-1.69-1.94-3.4-3.89-5.09-5.83c3.77-3.3,7.23,4.1,10.4-0.78
			c1.34,0.84,2.69,1.69,4.44,2.78c1.05-5.33,4.49-1.38,7.05-2.3c-1.35-1.06-2.59-2.02-4.85-3.79c4.31-0.55,7.41-0.94,11.79-1.5
			c-3.08-2.32-5.15-3.88-7.33-5.52c-4.1,1.63-8.01,0.94-9.87-2.06c5.01-1.28,9.95-2.54,15.47-3.95c-4.68-4.07-9.76-6.9-10.34-13.78
			c5.28,1.54,9.91,2.89,14.54,4.24c0.43-0.35,0.85-0.7,1.28-1.04c-1.62-3.51-3.06-7.11-4.91-10.49c-1.54-2.81-4.32-5.12-2.66-9.49
			c1.76,1.43,3.28,2.66,5.59,4.53c-0.28-3.34-0.49-5.82-0.74-8.75c0.5-0.18,1.44-0.51,2.65-0.94c-0.44-1.2-0.89-2.42-1.34-3.64
			c0.32,0.12,0.64,0.24,0.96,0.35c1.16-2.66,2.32-5.32,3.48-7.98c0.33-0.08,0.66-0.16,0.99-0.24c0.48,2.92,0.97,5.85,1.47,8.9
			c0.77-0.35,1.94-0.87,3.85-1.73c-1.62,5.07-3.04,9.53-4.46,13.98c0.28,0.3,0.57,0.59,0.85,0.89c1.76-0.78,3.49-1.69,5.31-2.3
			c0.9-0.31,1.97-0.09,2.97-0.12c-0.05,1.01,0.24,2.22-0.22,2.98c-1.83,3.06-3.97,5.92-5.83,8.97c-0.66,1.07-1.52,3.03-1.08,3.54
			c0.86,0.99,2.57,1.72,3.93,1.72c4.3,0.02,8.69-0.07,12.15-3.76c0.44,4.45-0.76,7.94-4.16,10.5c-1.76,1.33-3.67,2.46-5.45,3.77
			c-0.62,0.45-1.18,1.11-1.51,1.79c-0.75,1.55-1.33,3.19-2.33,5.65c2.77,0.46,6.36,1.06,10.25,1.71c-0.14,0.75-0.34,1.85-0.66,3.55
			c1.83-1.58,3.25-2.8,4.67-4.03c0.06,0.27,0.12,0.55,0.18,0.82c2.2-0.23,4.39-0.45,6.59-0.68c0.29,0.21,0.58,0.43,0.86,0.64
			c-1.83,1.66-3.6,3.4-5.51,4.97c-1.84,1.51-3.83,2.85-5.47,5.21c5,0.56,10,1.11,15.44,1.72c-1.87,2.52-3.92,5.28-5.97,8.03
			c0.12,0.28,0.23,0.56,0.35,0.84c1.29-0.57,2.6-1.08,3.85-1.72c1.42-0.73,2.71-1.87,4.21-2.26c1.05-0.27,2.98,0.05,3.37,0.75
			c0.5,0.89,0.27,2.78-0.41,3.62c-1.9,2.35-4.33,4.28-6.27,6.61c-0.66,0.8-0.47,2.3-0.75,4.02c2.07-0.31,4.04-0.83,6-0.79
			c0.87,0.02,2.48,1.17,2.45,1.76c-0.08,2.05-6.54,6.44-8.65,6.22c-2.17-0.22-4.35-0.4-6.93-0.63c1,1.64,1.89,3.12,3.3,5.44
			c-4.96,0-9.1,0-13.78,0c4.36,5.46,9.37,7.33,15.87,5.99c1.5-0.31,3.32,1.16,5.05,1.63c7.11,1.93,12.82-1.58,19.4-5.48
			c-0.11,1.93,0.33,3.65-0.34,4.46c-2.8,3.36-5.94,6.44-8.95,9.62c0.5,0.2,1,0.4,1.49,0.59c-0.35,2.16-0.08,4.75-1.22,6.34
			c-1.05,1.46-3.61,1.85-5.5,2.71c-0.26-0.34-0.52-0.67-0.78-1.01c-0.35,1.11-0.7,2.22-1.26,4.02c-2.69-0.43-5.58-0.88-8.76-1.38
			c1.02,1.3,2.04,2.59,3.26,4.13c-7.64,1.31-11.8-6.53-19.57-6.77c3.9,3.32,6.99,6.1,10.23,8.68c2.45,1.95,2.54,1.84,0.03,4.28
			c6.13,3.63,12.42,2.47,18.68,0.74c1.46,3.47,1.46,3.47-4.62,6c0.87,0.37,1.37,0.64,1.91,0.8c0.6,0.18,1.23,0.27,2.02,0.43
			c-1.92,2.4-3.65,4.55-6.12,7.64c5.56,0.16,9.19-1.25,12.74-4.46c-0.22,1.16-0.43,2.31-0.76,4.04c1.88-0.56,4.09-0.55,5.07-1.65
			c3.4-3.81,8.09-3.95,13.17-5.33c-1.37,6.85-6.06,10.68-11.9,14.94c3.64,0,6.1,0,8.56,0c0.19,0.4,0.38,0.8,0.58,1.2
			c-2.79,1.57-6.08,4.94-8.25,4.32c-3.63-1.03-5.86,2.66-9.02,0.76c-0.11,0.39-0.21,0.77-0.32,1.16c3.11,1.57,6.23,3.14,9.37,4.72
			c-5.11,6.64-8.58,0.1-12.81-0.75c0.13,1.69,0.22,2.85,0.4,5.02c-3.91-2.07-7.18-3.8-10.46-5.53c-0.32,0.15-0.64,0.3-0.97,0.45
			c1,1.51,2.01,3.01,3.22,4.84c-3.75,4.15-6.64-2.08-10.07-0.91c-0.37,1.85-0.25,3.88-3.51,1.89c-4.16-2.54-8.81-4.28-12.74-6.13
			c0.9,4.15,4.18,6.43,12.78,7.58c-1.61,1.24-2.78,2.15-4.2,3.25c5.15,1.51,9.9,6.17,15.31,0.38c1.86,1.49,3.44,4.42,6.36,1.45
			c0.31-0.31,2.17,0.91,3.81,2.51c-2.95,1.24-5.9,2.48-8.8,3.71c3.18,3.79,12.53,3.23,15.27-0.78c0.6-0.88,2.56-1.1,3.9-1.1
			c0.55,0,1.73,1.7,1.54,2.08c-0.54,1.05-1.53,1.97-2.55,2.63c-1.08,0.7-2.38,1.05-3.59,1.55c0.16,0.35,0.32,0.7,0.48,1.04
			c7.69-1.98,15.38-3.96,23.07-5.94c0.23,0.46,0.46,0.92,0.69,1.38c-4.2,4.66-8.4,9.33-12.64,14.03c1.24,0.37,2.47,0.74,3.7,1.11
			c-0.06,0.48-0.12,0.96-0.18,1.45c-2.05-0.18-4.1-0.35-6.22-0.54c-0.77,4.2-3.28,2.15-5.62,0.81c-0.18,0.29-0.37,0.59-0.55,0.88
			c1.08,1.04,2.16,2.07,3.4,3.27c-0.99,1.09-2.14,2.35-3.57,3.92c1.15-0.06,2-0.1,3.35-0.16c-1.83,4.88-6.1,0.33-8.97,2.85
			c-1.78,1.56-6.87-0.66-10.71-1.22c0.29-2.25,0.48-3.71,0.68-5.24c-1.53-0.58-3.03-1.14-4.36-1.65c-0.84,0.98-1.65,1.92-2.64,3.08
			c1.26,0.08,2.53,0.16,3.83,0.24c-1.71,6.42,4.99,6.59,8.23,10.29c-2.67,0.2-4.59,0.34-7.53,0.55c9.06,5.37,17.82,2.76,26.93,2.98
			c-2.3,1.26-4.3,2.35-6.3,3.44c0.05,0.32,0.1,0.63,0.15,0.95c1.5-0.07,3.01-0.14,4.94-0.23c-0.07,1.31-0.13,2.57-0.27,5.41
			c2.86-1.97,4.92-3.4,7.21-4.99c0.47,0.93,1.11,2.22,1.43,2.87c2.77,1.12,5.05,2.05,7.34,2.97c-1.44,2.04-2.88,4.08-4.33,6.13
			c0.63,0.05,1.67,0.12,3.91,0.28c-2.72,1.51-5.49,2.08-6.16,3.59c-2.35,5.26-5.92,2.93-9.49,2.41c-1.36-0.2-2.9,0.83-5.64,1.72
			c3.19,1.66,5.22,2.71,7.26,3.77c-0.06,0.24-0.13,0.47-0.19,0.71c-3.33-0.39-6.65-0.77-10.65-1.24c0.55,1.83,0.8,2.67,1.17,3.89
			c-6.8,1.37-9.51-4.98-14.26-7.17c-0.26,1.74-1.07,3.5-0.54,4.62c0.53,1.11,3.1,2.53,3.58,2.17c3.05-2.22,3,0.54,4.36,2.1
			c-5.13,3.23-10.77-4.74-15.63,2.13c2.59-0.18,4.58-0.32,6.56-0.45c0.2,2.44,0.2,2.44-5.87,5.25c2.46,0.46,4.98,1.46,7.38,1.22
			c2.38-0.23,4.64-1.71,7.82-2.99c-0.74,2.35-1.15,3.65-1.76,5.59c3.47-2.02,6.27-3.8,9.23-5.27c1.11-0.55,2.59-0.36,3.89-0.51
			c-0.4,0.98-0.85,1.94-1.19,2.94c-0.42,1.25-0.76,2.52-1.13,3.78c0.48,0.3,0.96,0.6,1.44,0.9c1.44-1.88,2.86-3.79,4.35-5.62
			c0.48-0.59,1.38-1.54,1.75-1.4c5.86,2.17,11.92,2.44,18.11,1.7c0.23,0.47,0.47,0.95,0.7,1.42c-3.15,2.25-6.3,4.49-9.61,6.86
			c0.58,0.68,1.31,1.54,2.3,2.71c-2,0.73-3.73,1.35-6.2,2.25c1.45,1.37,2.53,2.4,3.54,3.36c-0.2,0.52-0.45,1.15-0.88,2.24
			c1.81-0.27,3.1-0.46,5.25-0.77c-1.88,2.15-3.22,3.68-5.25,6c-1.92-0.35-4.92-0.89-7.22-1.31c-0.99,1.45-1.89,3.47-2.39,3.38
			c-3.18-0.6-6.45-1.3-9.35-2.69c-2.44-1.17-5.01-0.53-5.78,2.63c1.42-0.1,2.74-0.2,4.06-0.3c0.9,1.16,1.79,2.32,2.8,3.61
			c-0.58,0.7-1.24,1.48-2.03,2.43c3.38,2.25,9.16-1.56,10.62,5.38c-3.4,0.18-6.65,0.35-10.22,0.54c-0.02-0.29-0.08-0.98-0.18-2.1
			c-0.95,0.8-1.65,1.4-2.34,1.98c-1.83-2.01-3.53-3.88-5.23-5.74c-0.26,0.23-0.52,0.46-0.78,0.69c1.45,2.04,3,4.01,4.29,6.14
			c0.51,0.84,0.42,2.04,0.61,3.07c-1.16-0.39-2.37-0.69-3.47-1.22c-0.71-0.34-1.24-1.04-2.51-2.15c0.34,1.43,0.5,2.09,0.73,3.08
			c-3.99,0.23-7.98,0.46-11.96,0.69c-0.09,0.46-0.18,0.93-0.27,1.39c3.92,0.81,7.83,1.62,12.34,2.56c-0.42,1.14-0.89,2.41-1.65,4.49
			c3.49-0.15,6.68-0.44,9.86-0.38c2.08,0.04,4.16,0.57,6.24,0.87c-1.62,1.46-3.24,2.93-4.9,4.43c-0.07-0.03,0.76,0.37,2.29,1.1
			c-1.06,0.49-1.9,0.88-3.34,1.54c1.95,0.71,2.93,1.06,3.91,1.42c-0.04,0.4-0.07,0.81-0.11,1.21c-5.89,1.81-11.73,1.4-17.49-2.24
			c-0.24,0.54-0.48,1.08-0.73,1.61c3.4,2.83,6.8,5.65,10.9,9.06c-6.41,0.79-9.37-3.05-13.2-6.43c0.1,1.29,0.16,2.03,0.25,3.23
			c-1.24-0.85-2.34-1.61-3.67-2.52c-0.33,3.22,5.63,5.03,1.6,8.6c-4.4-1.87-3.94-9.48-10.51-9.08c0.31,2.61,0.59,5.03,0.88,7.45
			c-0.37,0.06-0.74,0.13-1.12,0.19c-1.68-1.47-3.43-2.87-5.01-4.44c-1.61-1.59-3.07-3.34-5.19-5.69c0.5,5.53,0.94,10.44,1.29,14.37
			c2.1,0.61,4.07,0.57,4.89,1.52c2.3,2.65-1.24,5-2.1,5.18c-3.03,0.66-2.42,2.6-2.35,4.39c0.62,16.21,1.17,32.42,2,48.61
			c0.46,8.99,1.36,17.95,2.15,26.92c0.21,2.38,0.85,4.36,3.87,2.12c0.52-0.38,1.68,0.11,2.28,0.17c2.84-2.8,5.73-5.74,8.33-8.83
			c2.87-3.41,8.54-4.47,11.93-6.05c3.59,0.41,6.53,1.33,9.29,0.94c4.86-0.68,7.92,1.08,8.75,6.36c0.91-1.06,1.63-1.91,2.95-3.46
			c0.49,2.46,0.85,4.34,1.22,6.21c3.69-0.9,4.74-3.24,3.23-7.25c-3.18-8.48-1.83-11.7,6.72-14.82c-1.22-23.32,2.01-46.97-2.34-70.71
			c-3.3-0.57-7.62,0.29-8.55-4.52c-0.55-2.82-0.35-5.82-1.13-8.55c-1.16-4.11,2.59-4.79,4.33-6.64c4.55-4.84,9.42-9.41,14.37-13.85
			c2.55-2.29,3.54-4.64,3.53-8.2c-0.11-20.67,0.06-41.34,0.35-62.01c0.05-3.6-0.92-5.2-4.59-4.91c-1.09,0.09-2.2-0.21-3.31-0.34
			c-6.93-0.77-5.9-0.97-7.23-7.79c-1.2-6.16,2.13-9.17,5.08-12.99c11.46-14.79,22.94-29.56,34.3-44.43c1.83-2.4,3.64-3.53,6.86-3.5
			c32.18,0.26,64.36,0.23,96.54,0.49c3.77,0.03,6.63-1.2,9.42-3.39c11.12-8.74,22.32-17.37,33.38-26.19c2.9-2.31,5.18-2.3,8.08,0.03
			c11.68,9.36,23.46,18.61,35.33,27.72c1.48,1.14,3.76,1.73,5.67,1.74c24.56,0.14,49.12,0.08,73.68,0.27
			c1.72,0.01,4.05,1.1,5.06,2.46c12.87,17.37,25.53,34.89,38.29,52.34c2.85,3.89-0.12,7.43-0.82,10.98
			c-0.2,1.03-3.49,1.72-5.45,2.06c-2.55,0.45-5.18,0.41-8.02,0.59c0,22.27,0,44.13,0,65.94c0.31,0.22,0.56,0.55,0.75,0.52
			c6.5-1.08,10.23,2.43,13.99,7.25c4.93,6.31,10.7,11.99,16.36,17.7c2.04,2.06,2.68,4.03,1.85,6.66c-0.17,0.53-0.28,1.07-0.35,1.62
			c-0.99,7.27-1,7.24-8.55,8.45c-0.78,0.13-1.99,0.8-2.11,1.4c-0.87,4.36-2.08,8.76-2.14,13.16c-0.23,17.06-0.03,34.13-0.07,51.2
			c-0.01,2.96,0.29,5.14,3.65,6.53c3.5,1.45,4.7,7.67,3.3,12.68c-0.47,1.68-0.67,3.43-1.11,5.75c3.28,0.78,6.17,1.46,9.3,2.2
			c0.36-2.26,0.57-3.6,0.84-5.26c1.23,0.29,2.32,0.55,3.62,0.86c0.21-0.97,0.4-1.85,0.66-3.06c1.02,0.43,2.16,0.55,2.66,1.18
			c1.56,1.98,2.88,4.14,4.28,6.24c0.46,0.69,0.92,2.04,1.3,2.01c3.43-0.25,3.48,2.76,4.86,4.57c0.66,0.86,2.22,0.99,3.24,1.65
			c1.79,1.15,3.49,2.45,5.47,3.86c-0.04,0.05,0.54-0.62,1.13-1.29c0.42,0,0.84-0.01,1.26-0.01c0,1.68,0.49,3.56-0.1,5.01
			c-1.22,3-0.12,3.67,2.61,3.71c0.86,0.01,2.35,0.58,2.45,1.1c0.63,3.42,3.11,3.19,5.65,3.41c7.55,0.63,15.1,1.38,22.62,2.27
			c0.84,0.1,1.55,1.4,2.31,2.15c-0.88,0.85-1.7,2.33-2.66,2.43c-3.72,0.38-7.48,0.4-11.22,0.4c-71.87,0.08-143.74,0.24-215.61,0.19
			c-86.16-0.05-172.33-0.34-258.49-0.41c-37.46-0.03-74.92,0.23-112.38,0.36c-1.5,0.01-3,0-4.38,0c-1.69-3.21-0.35-4.43,2.42-4.7
			c9.1-0.91,18.2-1.77,27.29-2.65c1.38-0.13,2.76-0.23,3.75-0.31c-0.34-0.95-0.93-1.93-0.93-2.91c0-0.36,1.41-0.68,2.14-1.1
			c0.88-0.51,1.67-1.2,2.58-1.63c0.9-0.43,1.89-0.84,2.86-0.89c2.46-0.12,4.93-0.04,8.83-0.04c-4.17-3.94-1.33-5.53,0.52-7
			c5.22-4.16,7.1-4.26,11.42-0.94c0.2-1.41,0.37-2.64,0.58-4.15c0.87,0.27,1.59,0.49,1.53,0.47c2-2.19,3.77-4.14,5.55-6.08
			c0.15,0.46,0.3,0.92,0.45,1.38c2.23,0.58,4.48,1.06,6.67,1.76c1.87,0.6,3.8,1.24,5.47,2.25c4.15,2.5,6.95,1,7.09-4.17
			c0.28-9.98,0.35-19.97,0.59-29.95c0.55-22.45,1.16-44.91,1.74-67.36c0.05-1.8,0.01-3.6,0.01-6.75c-2.79,4.43-4.95,7.88-7.12,11.32
			c-0.15-0.29-0.29-0.59-0.44-0.88c-1.35,0.59-2.98,0.88-4,1.82c-2.08,1.92-3.76,4.27-5.76,6.28c-0.56,0.56-1.67,0.58-2.74,0.45
			c1.59-3.3,6.04-4.22,6.51-8.83c-10.45,8.24-13.52,9.32-22.44,7.91c0.92-1.13,1.74-2.12,2.82-3.44c-1.59-0.75-2.88-1.37-4.13-1.96
			c0.5-4.08,3.07-5.39,6.69-4.8c0.26-0.3,0.44-0.49,0.43-0.49c-0.53-0.53-1.08-1.05-1.27-1.23c2.19-1.11,4.73-1.93,6.67-3.5
			c1.96-1.58,3.32-3.9,4.42-6.77c-2.41,0.96-5.64,1.26-7.06,3.02c-2.76,3.44-4.16,1.48-6.45-1.72c0.36,4.03,0.69,7.03-3.7,6.62
			c-0.63-0.06-1.32,1.34-2.11,1.89c-1.53,1.07-2.5,3.41-5.24,1.93c-0.63-0.34-2.39,1.03-3.44,1.86c-2.82,2.25-5.2,0.8-7.79-0.6
			c4.63-1.37,9.8-1.71,10.31-8.51c-2.75,1.91-5.46,3.78-8.16,5.66c-0.34-0.42-0.68-0.84-1.02-1.26c2.55-2.74,5.1-5.48,7.66-8.21
			c-0.2-0.27-0.39-0.53-0.59-0.8c-0.86,0.61-1.72,1.2-2.57,1.83c-1.46,1.08-2.44,3.63-4.97,1.39c-0.29-0.26-1.93,0.72-2.74,1.38
			c-3.63,2.92-7.23,4.22-11.33-0.23c1.36-1.17,2.71-2.35,4.97-4.3c-2.84-1.75-5.6-3.31-8.18-5.1c-1.26-0.87-2.3-2.12-3.26-3.33
			c-1.61-2.04-3.07-4.19-4.73-6.49c0.5-0.41,1.1-1.25,1.5-1.17c4.35,0.9,8.73,1.76,12.99,3.02c2.82,0.83,8.68-0.61,11.03-3.54
			c-3.39,0.4-6.39,0.29-6.53-3.18c4.1-1.09,7.82-3.02,11.33-2.69c2.41,0.22,5.48-0.66,8.08,1.98c1.53,1.55,5.36,0.82,8.82,1.19
			c-3.1-5.7-7.41-7.56-13.02-7.37c0.23-0.68,0.47-1.36,0.7-2.04c4.58-0.31,9.15-0.62,13.59-0.92c-0.27-0.25-0.96-0.9-2.2-2.06
			c3.25-1.14,6.02-2.12,9.47-3.33c-2.25-1.87-4.17-3.46-6.67-5.54c-0.98,1.42-1.92,2.77-3.16,4.57c-0.71-1.31-1.09-2.02-1.58-2.93
			c-0.72,1.3-1.38,2.48-2.29,4.12c-0.5-0.88-0.83-1.47-1.48-2.64c-5.89,5.39-11.64,0.64-18.81-0.58c2.05-1.95,3.58-3.4,5.28-5.01
			c-1.12-2.7-3.46-3.11-5.75-1.55c-5.92,4.02-8.45,3.79-12.71-1.75c2.78-0.68,5.59-1.37,8.4-2.06c0.15-0.5,0.3-1,0.44-1.49
			c-6.35-2.26-9.92-6.36-9.39-14.08c2.68,0.83,5.29,1.62,7.88,2.46c1.15,0.37,2.25,0.92,3.41,1.27c4.52,1.35,7.55-0.55,8.93-3.84
			c4.79,1.37,9.05,2.89,13.44,3.68c1.55,0.28,3.41-1.22,4.95-2.61c-1.62,0.21-3.24,0.42-5.39,0.7c0.73-1.09,1.13-1.68,1.72-2.55
			c-1.44-0.48-2.68-0.89-4.21-1.4c0.43-2.21,0.86-4.44,1.36-7c4.52-0.11,8.19,6.22,13.41,1.78c-3.03-0.48-5.8-0.91-8.58-1.35
			c-0.03-0.45-0.07-0.91-0.1-1.36c4.51-0.95,9.02-1.9,13.52-2.86c-0.09-0.44-0.18-0.87-0.26-1.31c-1.81,0.13-3.63,0.26-5.44,0.39
			c-0.07-0.38-0.15-0.75-0.22-1.13c1.07-0.77,2.14-1.53,3.68-2.63c-2.41-2.71-3.49-0.36-5.07,0.82c-1.67,1.25-3.73,1.97-6.03,3.13
			c0.79-2.34,1.34-3.99,1.9-5.63c-0.38-0.12-0.75-0.24-1.13-0.37c-2.45,4.82-7.38,5.46-12.68,7.96c0.83-2.3,1.24-3.44,1.95-5.39
			c-4.54,1.93-8.78,6.56-13.43,0.65c3.01-0.78,5.7-1.47,8.83-2.28c-4.13-4.4-7.81-5.4-13.84-4.23c-1.33-1.5-2.68-3.02-4.54-5.12
			c2.95-0.6,5.3-1.07,7.63-1.54c-1.6-2.01-3.72-3.94-4.89-6.34c-1.15-2.36-1.35-5.2-2-8c1.39-0.07,1.8-0.2,1.9-0.08
			c3.95,4.84,9.4,4.84,14.93,4.86c1.09,0,2.18,1,3.5,1.65c-0.09-0.79-0.17-1.49-0.26-2.26c1.82-0.21,3.62-0.42,5.31-0.62
			c-3.08-2.32-6-4.53-8.93-6.74c0.2-0.42,0.41-0.84,0.61-1.27c4.64,0.33,9.26,3.62,13.58,1.2c1.96,1.1,3.87,2.97,5.84,3.04
			c1.95,0.06,3.9-1.91,5.97-2.62c4.19-1.45,8.48-2.6,12.7-3.97c1.31-0.43,2.52-1.17,3.77-1.78c-0.11-0.32-0.22-0.64-0.33-0.97
			c-0.92,0.16-1.83,0.32-3.14,0.55c0.23-2.44,0.44-4.66,0.65-6.89c-0.32-0.08-0.64-0.16-0.96-0.24c-0.37,0.47-0.96,0.89-1.07,1.41
			c-0.94,4.25-3.19,6.67-7.89,6.73c-1.11,0.01-2.2,1.83-3.54,3.04c-0.78-0.17-2.04-0.45-3.78-0.83c1.4-1.89,2.7-3.65,3.79-5.13
			c-2.85,0-5.63,0.51-8.1-0.15c-2.32-0.61-4.31-2.45-6.61-3.85c-2.91,1.73-9.3-0.31-10.63-3.82c1.66-0.09,3.27-0.18,5.58-0.3
			c-3.96-5.2-12.5-4.8-12.61-13.02c1.85,0.49,3.22,0.85,4.37,1.16c-2.64-2.37-5.32-4.77-8.01-7.18c0.27-0.57,0.55-1.13,0.82-1.7
			c9.61,2.31,19.22,4.61,28.57,6.86c-2.01-2.55-6.63-4.6-4.26-10.01c4.99,4.43,10.76,6.34,17.61,6.38c-1.67-2.1-2.8-3.52-3.93-4.94
			c0.25-0.39,0.5-0.78,0.76-1.16c4.07,2.21,5.99,0.26,7.25-3.57c-2.71-1.05-5.45-2.11-8.58-3.31c0.86-1.69,1.79-3.54,2.89-5.71
			c-2.99,2.04-5.63,3.83-8.74,5.95c0.11-1.53,0.15-2.15,0.22-3.2c-1.24,0.76-2.14,1.31-3.6,2.21c-0.39-1.03-0.84-2.22-1.29-3.41
			c-0.25,0.62-0.51,1.24-0.76,1.86c-3.16,0.58-6.32,1.17-10.28,1.9c0.84-1.81,1.25-2.71,1.49-3.23c-3.16-2.96-6.13-5.75-9.34-8.75
			c3.16-1.96,6.39,3.68,8.44-1.75c-7.79-1.26-6.15-9.16-9.86-13.62c0.3-0.38,0.61-0.75,0.91-1.13c4.47,2.38,8.94,4.76,13.42,7.13
			c0.5-1.84,1-3.7,1.56-5.76c3.97,1.31,6.16,6.05,11.7,4.75c-1.78-2.2-3.21-3.96-5.23-6.45c1.8-0.49,3.6-0.99,5.55-1.53
			c-0.03-0.12-0.18-0.84-0.39-1.82c5.9,0.76,11.85,2.59,16.76-2.69c0.37,0.19,1.06,0.55,1.13,0.59c2.02-1.56,3.7-2.86,5.77-4.46
			c0.01,0.1-0.1-0.66-0.24-1.65c1.99,0,3.79,0,5.59,0c0.06-0.3,0.11-0.61,0.17-0.91c-1.13-0.28-2.27-0.55-2.74-0.67
			c-0.43-1.65-0.75-2.9-1.07-4.15c1.59-0.16,3.18-0.31,5.11-0.5c-0.54-1.05-1.01-1.69-1.2-2.41c-0.19-0.74-0.11-1.55-0.15-2.33
			c-0.41-0.11-0.82-0.22-1.23-0.33C93.98,129.71,93.17,131.59,92.36,133.48z M415.84,448.2c-4.24-0.02-8.49-0.23-12.71,0.06
			c-1.15,0.08-2.19,1.69-3.28,2.6c1.17,0.66,2.3,1.73,3.54,1.87c1.2,0.14,2.5-0.67,3.76-1.06c0.26,0.66,0.53,1.32,1.13,2.82
			c0.49-1.84,0.75-2.81,1-3.74c1.24,0,2.44,0,3.65,0c-0.06,0.76-0.12,1.4-0.15,1.79c2.41,0,4.91-0.54,7.02,0.13
			c2.96,0.93,4.44,0.96,4.04-2.53c-2.82-0.68-5.42-1.3-8.03-1.92c0.7-3.38-1.37-4.27-4.07-4.28c-3.1-0.01-6.21,0.14-9.3,0.42
			c-0.91,0.08-1.76,0.85-2.77,1.37C405.51,446.62,410.68,447.41,415.84,448.2z M216.27,247.96c-4.69-0.28-9.08,4.14-14.11,0.71
			c0.1,0.84,0.18,1.46,0.28,2.28c-1.06-0.36-2.02-0.69-3.19-1.09c-0.75,1.97-1.42,3.73-2.22,5.82c6.2,0,11.89,0,17.25,0
			c0.73-2.84,1.35-5.3,1.98-7.76c0.79,0.79,1.53,2.19,2.38,2.26c7.23,0.57,14.47,0.93,21.72,1.29c2.16,0.11,4.33,0.02,6,0.02
			c0,8.76,0,17.12,0,25.29c-4.41,0-8.23,0-12.55,0c0-7.44,0-14.59,0-21.74c-0.31,0.01-0.63,0.01-0.94,0.02c0,7.2,0,14.4,0,22.11
			c-3.58,0-6.74,0-9.9,0c0,0.35,0.01,0.69,0.01,1.04c7.78,0,15.57,0,23.24,0c0,7.68,0,14.83,0,21.97c-8.33,0-16.32,0-25.02,0
			c0-16.06,0-31.88,0-47.81c-2.04,0-3.38,0-5.17,0c0,8.61,0.19,17.04-0.05,25.46c-0.24,8.09,0.31,16.25-0.33,24.32
			c-0.38-0.02-0.75-0.03-1.13-0.05c0.25-1.53,0.51-3.07,0.78-4.7c-6.17,0-11.79,0-17.61,0c0,5.01,0,9.74,0,14.86
			c24.84,0,49.81,0,75.18,0c-0.1-2.26-0.17-3.81-0.28-6.35c-7.75,0.79-14.92,1.92-22.13,2.16c-10.21,0.34-20.45,0.18-30.67-0.09
			c-5.01-0.13-9.99-1.04-14.99-1.48c-1.88-0.17-3.78-0.03-5.68-0.03c0-0.33,0-0.67,0-1c18.42,0,36.84,0,55.26,0
			c0.27-0.32,0.54-0.64,0.81-0.95c-1.06-1.05-2.13-2.09-3.48-3.43c0-16.86,0-34.32,0-51.92c-3.18,0-6.21-0.04-9.24,0.01
			c-6.92,0.1-13.84,0.36-20.76,0.3C219.88,249.46,218.08,248.49,216.27,247.96z M285.56,310.8c-1.21,3.84-0.19,4.98,3.36,4.96
			c37.59-0.27,75.18-0.33,112.78-0.62c12.02-0.09,24.04-0.68,36.05-1.02c0.27-0.01,0.53,0.29,0.81,0.39c1.91,0.7,3.82,1.39,6.05,2.2
			c0-24.64,0-48.13,0-71.71c-1.95,0-3.53,0-5.78,0c0,21.04,0,41.83,0,62.62c-0.33,0.01-0.65,0.02-0.98,0.03
			c-0.16-2.35-0.33-4.7-0.52-7.43c-7.71,0-15.11,0-22.62,0c0-20.9,0-41.36,0-61.82c0.38-0.01,0.76-0.03,1.14-0.04
			c0.17,2.05,0.34,4.11,0.48,5.85c7.36,0,14.36,0,21.36,0c0.18-0.41,0.36-0.81,0.55-1.22c-5.28,0.59-8.46-1.19-8.93-6.4
			c-0.04-0.43-1.77-1-2.72-1c-4.42-0.03-8.84,0.18-13.26,0.18c-17.71-0.03-35.41-0.12-53.12-0.16c-13.27-0.03-26.54-0.03-39.82-0.04
			c-9.4-0.01-18.8,0-27.5,0c-0.51,3.26-0.94,5.97-1.44,9.12c4.33-1.75,10.15,3.38,14.59-2.51c0.17-0.22,0.78-0.14,1.19-0.14
			c10.91-0.01,21.81-0.01,32.6-0.01c0,11.76,0,22.66,0,33.35c-4.51,0-8.74,0-13.15,0c0-5.11,0-9.88,0-15.35c4.17,0,8.1,0,12.02,0
			c-0.03-0.42-0.05-0.84-0.08-1.26c-3.91,0-7.82,0-12.35,0c0-5.04,0-9.54,0-14.04c-0.42,0.01-0.84,0.01-1.26,0.02
			c0,4.58,0,9.15,0,13.67c-4.26,0.21-7.91,0.39-11.55,0.57c0.02,0.44,0.05,0.88,0.07,1.33c3.77,0,7.54,0,11.28,0
			c0,5.36,0,10.22,0,15.27c-4.56,0-8.67,0-13.26,0c0-10.64,0-21.24,0-32.16c-1.95,0.19-3.39,0.33-5.18,0.5c0,5.69,0,11.11,0,16.53
			c-0.15-3-1.66-3.87-4.45-3.58c-2.34,0.24-4.71,0.19-7.06,0.17c-9.39-0.11-9.4-0.12-8.92,8.88c0.01,0.21,0.31,0.41,0.46,0.58
			c6.54,0,13.05,0,19.57,0c0.02,0.35,0.04,0.71,0.05,1.06c-6.68,0-13.37,0-20.33,0c0,3.64,0,6.54,0,9.44c6.71,0,13.18,0,19.87,0
			c0.24-1.86,0.45-3.51,0.54-4.24c0,8.47,0,17.85,0,27.79c-7.15,0-13.99,0-20.85,0c0,3.4,0,6.23,0,9.35c6.32,0,12.35,0,18.38,0
			c0,0.3,0.01,0.59,0.01,0.89C297.57,310.8,291.49,310.8,285.56,310.8z M168.52,338.29c-0.94,5.93-0.89,6.01,4.51,6
			c35.24-0.03,70.47-0.09,105.71-0.11c42.72-0.02,85.44-0.02,128.16-0.03c41.48,0,82.95,0.01,124.43,0c5.12,0,5.32-0.32,4.31-5.87
			C413.38,338.29,291.06,338.29,168.52,338.29z M266.74,231.75c1.66-1.51,2.33-2.18,3.06-2.77c28.74-23.54,57.53-47.01,86.15-70.68
			c3.17-2.62,5.02-2.31,7.98,0.1c29.1,23.73,58.32,47.33,87.52,70.95c0.9,0.73,2,1.21,3.01,1.8c-0.3,0.4-0.6,0.8-0.9,1.2
			c-5.92,0-11.84,0-18.06,0c-0.07,1.57-0.13,2.85-0.19,4.24c9.32,0,18.13,0,26.8,0c1.98-5.06-0.78-7.7-4.12-10.36
			c-15.71-12.52-31.33-25.14-46.97-37.75c-15.22-12.27-30.45-24.52-45.57-36.91c-3.19-2.61-5.77-3.36-9.33-0.48
			c-5.91,4.79-12.38,8.91-18.28,13.72c-15.58,12.69-31,25.59-46.46,38.43c-10.77,8.94-21.54,17.87-32.18,26.97
			c-0.97,0.83-1.24,2.8-1.29,4.26c-0.02,0.62,1.34,1.85,2.09,1.86c8.29,0.13,16.58,0.08,24.82,0.08c0.49-4.71,0.49-4.69-3.54-4.67
			C276.88,231.77,272.48,231.75,266.74,231.75z M290.55,234.5c6.5,0,12.28,0.01,18.06,0c23.57-0.04,47.13-0.09,70.7-0.14
			c15.81-0.03,31.61-0.09,47.42-0.05c2.22,0.01,4.38-0.99,2.68-2.78c-2.78-2.91-5.29-6.7-10.43-6.56c-12.2,0.34-24.4,0.36-36.6,0.43
			c-26.9,0.15-53.8,0.19-80.69,0.49c-1.64,0.02-3.34,1.87-4.87,3.07C294.97,230.41,293.29,232.06,290.55,234.5z M431.49,428.75
			c0.03,0.61,0.07,1.22,0.1,1.82c22.37,0,44.74,0,67.39,0c-0.3-1.47-0.5-2.44-0.61-3.01c-3.64,0-6.87,0-10.1,0
			c2.72-1.08,5.53-1.43,8.33-1.4c3.43,0.03,3.33-1.91,2.74-4.09c4.11,1.11,4.22-2.94,6.91-4.84c-7.04,0-13.22,0-19.96,0
			c0,3.51,0,6.75,0,10c-0.51-0.01-1.01-0.02-1.52-0.03c0-17.75,0-35.5,0-53.26c-0.6-0.17-1.2-0.35-1.8-0.52
			c-1.22,1.93-3.35,3.8-3.5,5.82c-0.46,6.21-0.17,12.48-0.17,18.77c-5.3,0-9.9,0-14.34,0c0-5.5,0-10.57,0-16.05
			c3.86,0,7.4,0,10.93,0c-0.01-0.12-0.02-0.24-0.03-0.35c-3.82,0-7.64,0-11.87,0c0,5.6,0,10.92,0,16.9c-5.02,0-9.64,0-14.26,0
			c0.01,0.45,0.02,0.9,0.03,1.36c9.72,0,19.43,0,29.25,0c0,9.36,0,18.05,0,26.95c-10.38,0-20.67,0-31.17,0
			c0-10.97-0.02-21.64,0.02-32.3c0.01-2.04,0-3.78-2.85-2.7c0,0-0.17-0.42-0.35-0.88c1-0.33,1.96-0.66,2.77-0.92
			c0-4.99,0-9.74,0-15.34c-4.7,8.68-5.07,10.99-3.78,12.9c-0.44,14.26-0.83,26.92-1.22,39.58c-0.55-0.01-1.1-0.02-1.66-0.03
			c0-3.33,0-6.65,0-9.66c-4.83,0-9.04,0-13.25,0c4.05,0.54,5.52,3.92,3.46,8.43c7.99,0.85,7.99,0.85,7.9,2.35
			C436.33,428.42,433.91,428.59,431.49,428.75z M302.01,223.6c39.45,0,78.3,0,118.5,0c-4.38-3.42-7.77-6.14-11.26-8.72
			c-0.58-0.43-1.58-0.41-2.39-0.41c-30.06,0.08-60.13,0.23-90.19,0.19c-3.65-0.01-6.36,1.37-8.89,3.56
			C305.93,219.81,304.2,221.54,302.01,223.6z M248.12,379.97c1.47,0.26,2.37,0.42,2.42,0.43c-0.87,1.22-2.4,2.39-2.4,3.56
			c0,3.13-1.97,6.68,0.69,9.07c-0.61,1.6-1.22,3.18-2.01,5.23c-8.73,0-17.64,0-26.56,0c0.01,0.25,0.01,0.51,0.02,0.76
			c9.06,0,18.12,0,27.19,0c0,9.32,0,18.47,0,27.69c-9.91,0-19.24,0-29.22,0c0-14.67,0.23-29.07-0.13-43.46
			c-0.11-4.58,2.16-10.22-3.92-13.65c0,19.27,0,38.34,0,58.27c-2.47,0-4.6-0.13-6.71,0.04c-2.12,0.17-5.08-1.03-5.64,2.76
			c18.19,0,36.07,0,53.96,0c0.26-1.61,0.44-2.8,0.63-3.95c0.62-0.17,1.01-0.36,1.4-0.36c4.02-0.08,8.04-0.17,12.05-0.18
			c5.57-0.01,8.56-2.52,9.93-8.74c-8.14,0-16.2,0-24.24,0c-1.62,9.21-1.62,9.21-3.29,9.3c0-19.31,0-38.59,0-57.87
			c-0.38-0.02-0.75-0.03-1.13-0.05c-0.12,1.65-0.25,3.3-0.43,5.73c-0.97-1.39-1.47-2.11-1.98-2.83c-0.36,0.28-0.72,0.57-1.09,0.85
			c1.25,1.33,2.5,2.65,3.95,4.19C250.59,377.68,249.63,378.58,248.12,379.97z M472.06,277.04c0-7.62,0-14.72,0-21.83
			c-0.28,0-0.55,0-0.83-0.01c0,7.24,0,14.47,0,22.24c-3.65,0-6.82,0-9.98,0c-0.01,0.34-0.02,0.69-0.04,1.03
			c1.14,0.1,2.28,0.28,3.43,0.3c5.27,0.1,10.54,0.06,15.8,0.32c1.04,0.05,2.89,1.15,2.91,1.82c0.22,6.62,0.13,13.24,0.13,19.94
			c-8.19,0-15.98,0-24.13,0c0-3.56,0.04-7-0.01-10.44c-0.17-11.36-0.31-22.71-0.65-34.06c-0.04-1.24-1.27-2.45-1.96-3.67
			c-0.4,0.15-0.81,0.3-1.21,0.45c0,17.37,0,34.73,0,52.42c10.96,0,22.04,0,33.11,0c1.84,0,3.05-0.4,2.14-2.69
			c-0.73-1.86-1.72-3.79-1.76-5.71c-0.21-9.57-0.15-19.14-0.17-28.71c-0.01-6.06,0-12.12,0-17.86c-2.42-0.68-4.37-1.23-5.91-1.66
			c-8.19,0.37-16.34,0.73-24.49,1.1c0.01,0.47,0.02,0.94,0.03,1.41c8.28,0,16.56,0,24.83,0c0,8.98,0,17.31,0,25.62
			C479.43,277.04,476.01,277.04,472.06,277.04z M314.54,212.94c31.11,0,61.47,0,92.74,0c-3.38-2.7-5.97-4.93-8.75-6.9
			c-1.03-0.73-2.49-1.19-3.75-1.19c-22.16-0.09-44.32-0.11-66.48-0.04c-1.7,0.01-3.63,0.51-5.04,1.42
			C320.4,208.07,317.83,210.36,314.54,212.94z M416.89,422.66c0-19.4,0-38.29,0-57.35c-3.45-0.16-6.49-0.29-9.97-0.45
			c0,19.35,0,38.58,0,57.79C410.22,422.66,413.24,422.66,416.89,422.66z M522.23,364.89c-2.95,0-5.45,0.22-7.89-0.06
			c-2.6-0.29-3.12,0.96-3.12,3.1c0.04,17.06,0.03,34.12,0.17,51.19c0.01,1.03,1.06,2.86,1.78,2.94c2.93,0.34,5.93,0.14,9.06,0.14
			C522.23,402.81,522.23,383.98,522.23,364.89z M190.19,422.1c0-19.48,0-38.39,0-57.25c-3.53,0-6.78,0-10.22,0
			c0,19.34,0,38.36,0,57.25C183.61,422.1,186.9,422.1,190.19,422.1z M285.76,364.72c0,19.1,0,38.09,0,57.3c3.58,0,6.7,0,9.98,0
			c0-19.12,0-38.13,0-57.3C292.27,364.72,289.12,364.72,285.76,364.72z M328.06,201.93c0.12,0.34,0.23,0.67,0.35,1.01
			c21.69,0,43.39,0,66.25,0c-3.67-3.07-6.31-5.47-9.16-7.59c-1.26-0.94-2.94-1.83-4.44-1.85c-11.75-0.15-23.53,0.35-35.25-0.22
			C337.84,192.89,333.36,197.9,328.06,201.93z M277.7,246.29c0,22.64,0,46.16,0,69.71c1.91,0,3.62,0,5.35,0c0-23.9,0-47.5,0-71.1
			C281.44,245.32,280.11,245.67,277.7,246.29z M372.71,370.65c-0.56,2.78,3.2,6.44-0.14,9.87c0.06,23.4,0.2,46.79,0.12,70.19
			c-0.02,4.06,1.77,3.91,4.56,3.05c0-27.02,0-53.94,0-80.28C375.41,372.32,374.1,371.51,372.71,370.65z M417.08,267.59
			c0,3.57,0,6.51,0,9.47c6.85,0,13.45,0,20.23,0c0-6.87,0-13.54,0-20.39c-4.33,0-8.33,0-12.33,0c-8.92-0.01-9.01,0.09-7.59,9.82
			c5.44,0,10.96,0,16.49,0c0,0.37-0.01,0.74-0.01,1.11C428.26,267.59,422.66,267.59,417.08,267.59z M176.1,236.46
			c25.8,0,51.05,0,76.46,0c0-1.83,0-3.35,0-4.85c-25.55,0-50.67,0-75.97,0C176.43,233.21,176.29,234.55,176.1,236.46z
			 M194.76,312.71c0-21.97,0-43.57,0-65.77c-4.58,2.91-5.27,6.83-5.29,11c-0.09,17.17-0.15,34.34-0.19,51.51
			c0,1.06,0.22,2.11,0.35,3.27C191.43,312.71,192.93,312.71,194.76,312.71z M322.07,454.49c2.2-0.27,3.61-0.45,4.48-0.55
			c0-26.94,0-53.31,0-79.69c-0.31-0.03-0.61-0.07-0.92-0.1c-0.28,0.91-0.56,1.83-0.85,2.74c-0.26-0.03-0.52-0.06-0.78-0.09
			c0.16-2.27,0.33-4.55,0.49-6.82c-0.87,1.24-1.82,2.79-1.87,4.37c-0.3,9.89-0.48,19.79-0.53,29.68
			C322.01,420.6,322.07,437.18,322.07,454.49z M394.61,458.05c-1.53,0-2.75,0-3.96,0c-25.23-0.03-50.45-0.05-75.68-0.08
			c-3.91,0-3.91,0.01-5.6,3.88c28.33,0,56.56,0,84.99,0C394.45,460.46,394.52,459.42,394.61,458.05z M308.82,469.39
			c14.23-0.24,28.41-1.01,42.56-0.55c14.73,0.47,29.37,0.48,44.11-1.48c-1.14-1.27-2.37-1.91-3.61-1.92
			c-11.2-0.12-22.41-0.17-33.61-0.17c-15.09,0-30.17,0.05-45.26,0.1C310.98,465.36,308.69,465.05,308.82,469.39z M253.88,278.45
			c0,5.77,0,11.04,0,16.57c6.24,0,12.36,0,18.43,0c0-5.68,0-11.08,0-16.82c-5.53,0-10.64-0.01-15.74,0.01
			C255.76,278.21,254.96,278.35,253.88,278.45z M244.38,443.09c0.09,0.66,0.17,1.31,0.26,1.97c-2.87,0.31-5.73,0.62-8.68,0.93
			c1.74,3.49,8.51,4.54,12.89,2.13c-0.58-1.14-1.17-2.28-1.93-3.78c5.89,0,11.52,0,17.91,0c2.85,3.89,4.59-2.98,7.57-2.65
			c0.48,0.05,1.12-1.46,1.69-2.25c-0.28-0.29-0.55-0.57-0.83-0.85c-2.14,1.03-4.2,2.34-6.45,3.01c-2.32,0.69-4.83,0.76-7.25,1.1
			c-0.09-0.35-0.17-0.7-0.26-1.05c4.85-1.45,9.69-2.89,14.54-4.34c-0.05-0.35-0.1-0.71-0.15-1.06c-6.62,0-13.24,0-21.11,0
			c1.82,1.21,2.53,1.67,4.21,2.79c-4.18-0.24-7.09-0.41-10-0.58c-0.04-0.25-0.08-0.49-0.12-0.74c1.79-0.37,3.57-0.73,5.36-1.1
			c-0.09-0.41-0.19-0.81-0.28-1.22c-4.45,0.73-8.9,1.47-13.34,2.2c0.04,0.47,0.08,0.95,0.11,1.42c4.71,0.62,9.4,1.29,14.12,1.84
			c1.57,0.18,3.17,0.03,5.75,0.03c-1.29,0.95-1.95,1.85-2.54,1.81c-6.28-0.45-12.56-0.96-18.82-1.64c-4.59-0.5-9.21,0.47-13.87-1.01
			c-2.32-0.73-5.33,0.74-8.02,1.21c0.05,0.61,0.11,1.22,0.16,1.82C225,443.09,234.69,443.09,244.38,443.09z M214.96,295.36
			c0-5.88,0-11.29,0-17.12c-4.99,0-9.69-0.15-14.37,0.12c-1.08,0.06-2.92,1.52-2.98,2.42c-0.3,4.8-0.14,9.62-0.14,14.59
			C203.48,295.36,208.98,295.36,214.96,295.36z M381.44,192.04c-4-3.18-7.11-7.54-10.9-8.23c-6.48-1.18-13.54-0.88-20.04,0.41
			c-3.63,0.72-6.62,4.69-10.72,7.82C354.06,192.04,367.26,192.04,381.44,192.04z M498.44,437.57c0.01-0.27,0.02-0.55,0.04-0.82
			c-0.31-0.17-0.61-0.49-0.92-0.49c-12.16-0.15-24.33-0.34-36.49-0.3c-1.46,0.01-3.63,0.91-4.25,2.06
			c-1.64,3.04-4.14,3.07-6.92,3.08c-1.16,0-2.32,0.31-4.17,0.58c2.61,0.92,4.24,1.49,5.87,2.06c-2.95,0.78-6.56-1.44-7.74,3.76
			c2.28-0.29,4.41-1.1,6.27-0.68c5.13,1.14,4.64-1.3,2.85-5.17c10.11,3.55,20.16,0.84,30.32,2.51c-1.15,0.92-1.83,1.46-2.65,2.12
			c3.65,1.46,8.91-0.96,12.29-5.51c-1.55-0.82-3.06-1.62-4.58-2.43c0.01-0.26,0.01-0.52,0.02-0.77
			C491.74,437.57,495.09,437.57,498.44,437.57z M467.21,236.62c17.15,0,33.85,0,50.7,0c0.17-1.05,0.35-1.71,0.37-2.37
			c0.02-0.63-0.12-1.27-0.19-1.97c-17.12,0-33.93,0-50.88,0C467.21,233.94,467.21,235.16,467.21,236.62z M433.74,228.99
			c0.14-0.36,0.29-0.72,0.43-1.07c-4.45-5.7-67.01-54.88-71.89-56.32c2.14,1.9,3.94,3.59,5.84,5.17
			c13.82,11.49,27.63,22.99,41.49,34.43c6.29,5.2,12.64,10.33,19.07,15.35C430.12,227.68,432.04,228.19,433.74,228.99z
			 M491.03,278.55c0,5.82,0,11.38,0,16.93c4.07,0,7.87,0,11.89,0c0-5.72,0-11.17,0-16.93C498.98,278.55,495.3,278.55,491.03,278.55z
			 M285.89,288.01c1.05,0.18,2.46,0.58,3.88,0.62c3.31,0.09,6.62-0.01,9.93-0.02c5.76-0.02,5.85-0.01,5.91-5.75
			c0.01-1.46-0.7-4.17-1.17-4.19c-6.21-0.28-12.43-0.19-18.54-0.19C285.89,282.15,285.89,284.8,285.89,288.01z M437.44,278.26
			c-5.65,0-10.76-0.09-15.87,0.05c-1.54,0.04-4.24,0.49-4.39,1.19c-0.54,2.49-0.27,5.17-0.14,7.77c0.02,0.32,1.09,0.84,1.68,0.85
			c6.19,0.06,12.38,0.04,18.73,0.04C437.44,284.53,437.44,281.66,437.44,278.26z M255.43,405.05c4.89,0,9.27,0.12,13.64-0.05
			c2.33-0.09,5.04,1.43,6.88-1.56c0.98-1.6,2.52-2.85,3.69-4.34c0.27-0.35,0.1-1.04,0.14-1.74c-0.72,0.62-1.27,1.1-1.69,1.46
			c-0.61-0.9-1.1-2.3-1.62-2.31c-6.95-0.15-13.91-0.1-21.04-0.1C255.43,399.2,255.43,401.9,255.43,405.05z M285.32,299.37
			c6.3,0,12.36,0.23,18.35-0.27c0.84-0.07,1.66-3.7,1.97-5.75c0.25-1.69,0.14-3.65-2.66-3.59c-5.78,0.11-11.57,0.03-17.66,0.03
			C285.32,292.89,285.32,295.71,285.32,299.37z M437.27,299.19c0-3.56,0-6.37,0-9.12c-7.02,0-13.68,0-20.36,0
			c0,2.43-0.31,4.55,0.13,6.51c0.23,1.02,1.73,2.46,2.71,2.5C425.5,299.31,431.26,299.19,437.27,299.19z M255.31,406.54
			c0,3.07,0,5.79,0,8.66c8.03,0,15.85,0.02,23.66-0.07c0.3,0,0.6-1,0.7-1.17c-2.17-0.13-4.14-0.25-6.12-0.37
			c-0.05-0.4-0.09-0.79-0.14-1.19c1.04-0.36,2.08-0.72,3.21-1.1c-0.12-2.79-1.08-4.76-4.3-4.76
			C266.73,406.54,261.16,406.54,255.31,406.54z M437.29,255.1c0-3.04,0-5.87,0-8.46c-7,0-13.68,0-20.33,0c0,3,0,5.58,0,8.46
			C423.73,255.1,430.31,255.1,437.29,255.1z M424.25,442.51c-2.64-0.23-4.88-0.43-7.13-0.63c1.53-0.8,3.16-0.61,4.49-1.16
			c1.14-0.47,1.92-1.78,2.87-2.72c-1.05-0.83-2.09-2.35-3.16-2.37c-6.16-0.15-12.34,0.16-18.51,0.1c-2.46-0.02-3.21,0.99-3.03,3.23
			c0.1,1.2,0.02,2.41,0.02,4.49c7.48-2.08,14.39-0.43,21.5,1.22c-0.05,0.28-0.21,1.21-0.37,2.16c1.11,0,2.03,0,3.13,0
			C424.13,445.29,424.19,443.95,424.25,442.51z M380.21,415.32c6.8,0,13.37,0,21.08,0c-1.21-2.54-2.1-4.4-2.79-5.87
			c0.41-0.32,1.24-0.95,2.07-1.59c-1.03-0.47-2.02-1.11-3.1-1.35c-1.02-0.22-2.14,0.01-3.22,0.01c-4.65,0.01-9.3,0-14.04,0
			C380.21,409.65,380.21,412.36,380.21,415.32z M305.52,255.07c0-2.5,0.16-4.95-0.1-7.36c-0.08-0.7-1.37-1.79-2.12-1.8
			c-4.41-0.04-8.82,0.06-13.21,0.43c-1.08,0.09-2.54,1.15-3,2.14c-0.89,1.93-1.2,4.12-1.85,6.59
			C292.03,255.07,298.44,255.07,305.52,255.07z M197.83,266.65c5.68,0,11.36,0,16.98,0c0-3.23,0-6.16,0-9.29
			c-5.05,0-9.73-0.18-14.38,0.13c-1.11,0.08-2.78,1.67-3.01,2.81C197.04,262.2,197.62,264.3,197.83,266.65z M380.13,426.18
			c4.38,0,8.37,0.02,12.35-0.01c3.83-0.02,7.96-4.96,7.41-8.96c-6.53,0-13.07,0-19.76,0C380.13,420.24,380.13,422.95,380.13,426.18z
			 M275.25,392.97c0.86-6.07-5.12-2.91-7.38-5.77c3.69-0.2,6.62-0.35,9.55-0.51c-0.04-0.36-0.08-0.72-0.12-1.08
			c-7.06,0-14.13,0-21.51,0c-0.16,2.51-0.33,5.18-0.52,8.11c8.24,0,16.05,0,24.07,0c-0.21-1.52-0.33-2.4-0.52-3.8
			C277.56,391.01,276.71,391.73,275.25,392.97z M506.28,406.38c-6.93,0-13.06,0-19.23,0c0,3.14,0,5.98,0,8.47c6.43,0,12.6,0,19.5,0
			c-1.32-1.9-2.08-2.99-2.86-4.12C504.39,409.56,505.09,408.39,506.28,406.38z M254.01,276.44c6.16,0,12.24,0,18.52,0
			c0-2.96,0-5.38,0-8.15c-6.17,0-12.18,0-18.52,0C254.01,270.91,254.01,273.62,254.01,276.44z M195.62,405.01
			c5.81,0,11.11,0,16.93,0c-0.16-3.32-0.31-6.36-0.45-9.19c-5.87,0-11.02,0-16.48,0C195.62,398.91,195.62,401.72,195.62,405.01z
			 M197.74,268.12c-0.11,2.31-0.43,4.5-0.22,6.64c0.08,0.89,1.26,2.36,1.98,2.39c5.19,0.21,10.39,0.11,15.55,0.11
			c0-3.45,0-6.17,0-9.14C209.3,268.12,203.81,268.12,197.74,268.12z M280.33,445.86c0.05,0.34,0.1,0.69,0.15,1.03
			c2.35,0,4.71,0,7.13,0c0.13-1.02,0.25-1.98,0.39-3.04c2.99,0,5.63,0,8.27,0c0.06-0.32,0.12-0.63,0.19-0.95
			c-3.67-0.81-7.33-1.63-11-2.44c0.11-0.45,0.22-0.91,0.34-1.36c2.95,0.59,5.97,0.97,8.85,1.83c5.63,1.7,8.06,0.24,7.2-4.8
			c-7.11-0.13-14.24-1.59-21.75,1.21c0.33,1.85,0.82,4.65,1.32,7.45c0.4-0.03,0.81-0.06,1.21-0.09
			C281.86,445.09,281.1,445.47,280.33,445.86z M212.67,415.31c-0.16-3.3-0.3-6.08-0.43-8.71c-5.98,0-11.29,0-16.62,0
			c0,3.1,0,5.89,0,8.71C201.31,415.31,206.66,415.31,212.67,415.31z M272.38,258.44c-6.3,0-12.24,0-18.4,0c0,2.43,0,5.15,0,7.82
			c6.28,0,12.38,0,18.4,0C272.38,263.46,272.38,261.26,272.38,258.44z M380.47,396.21c0,2.91,0,5.78,0,8.86
			c5.89,0,11.54,0.08,17.19-0.03c3.07-0.06,3.31-0.67,2.4-3.22c-1.39,0.64-2.84,1.31-4.29,1.97c-0.28-0.34-0.55-0.69-0.83-1.03
			c1.47-2.17,2.94-4.33,4.33-6.39c-2.67,0.56-5.66,1.18-8.65,1.81c-0.05-0.31-0.11-0.62-0.16-0.93c1.13-0.12,2.27-0.25,3.4-0.37
			c-0.02-0.22-0.05-0.45-0.07-0.67C389.59,396.21,385.4,396.21,380.47,396.21z M487.03,404.7c5.3,0,10.22,0,15.37,0
			c0-1.67,0-2.95,0-4.41c1.19-0.14,2.23-0.26,3.56-0.42c-0.73-1.32-1.31-2.38-2.18-3.94c-5.05,0-10.76,0-16.74,0
			C487.03,398.95,487.03,401.78,487.03,404.7z M211.71,384.92c-5.5,0-10.61,0-15.97,0c0,3.03,0,5.82,0,8.76c5.56,0,10.83,0,15.97,0
			C211.71,390.61,211.71,387.79,211.71,384.92z M272.46,305.51c0-2.99,0-5.51,0-8.18c-6.3,0-12.22,0-19.28,0
			c1.25,3.08,2.3,5.65,3.33,8.18C261.88,305.51,266.99,305.51,272.46,305.51z M499.07,391.83c0-0.32,0.01-0.65,0.01-0.97
			c2.16-0.64,4.31-1.29,7.22-2.16c-1.63-0.3-2.5-0.46-3.37-0.62c0.23-0.81,0.45-1.62,0.98-3.52c-1.59,1.74-2.4,2.62-3.73,4.08
			c0.33-1.74,0.51-2.72,0.66-3.5c-4.71,0-9.24,0-13.69,0c0,3.23,0,6.03,0,8.31c6.31,0,12.26,0,18.2,0
			c-0.01-0.54-0.03-1.08-0.04-1.62C503.23,391.83,501.15,391.83,499.07,391.83z M212.38,417.27c-5.72,0-11.27,0-16.83,0
			c0.25,6.44,7.53,10.06,16.83,8.52C212.38,423.14,212.38,420.42,212.38,417.27z M302.76,417.18c-0.18,4.45,0.53,5.01,5.51,4.91
			c-0.92,3.58,2.34,4.71,11.19,3.74c0-2.77,0-5.58,0-8.65C313.94,417.18,308.47,417.18,302.76,417.18z M319.5,396.23
			c-4.63,0-8.85,0-12.11,0c-1.28,3.21-2.34,5.87-3.47,8.73c5.31,0,10.36,0,15.58,0C319.5,401.92,319.5,399.11,319.5,396.23z
			 M304.36,414.25c0.12,0.32,0.24,0.64,0.36,0.96c4.89,0,9.78,0,14.8,0c0-3,0-5.69,0-8.88c-6.04,0.92-12.04-0.68-18.68,2.08
			c3.79,0.42,6.43,0.71,9.18,1.01C308.01,411.14,306.18,412.7,304.36,414.25z M390.9,435.21c1.28,0.9,2.18,1.53,2.89,2.02
			c-0.63-2.63-1.27-5.3-2.11-8.79c-3.23,0-7.31,0-11.44,0c0,3.07,0,6.14,0,9.18C387.99,438.4,390.51,437.93,390.9,435.21z
			 M194.37,450.59c0.09-1.73,0.12-3.26,0.25-4.78c0.17-2.01-3.06-4.6-4.48-3.29c-2.23,2.07-3.83,0.1-5.69,0.14
			c-1.92,0.04-3.83,1.02-5.72,1.67c-0.7,0.24-1.31,0.75-1.76,1.02c-0.68-1.11-1.21-1.97-1.75-2.84c-0.94,2.02-1.08,3.67-0.9,5.27
			c0.13,1.09,0.65,3.02,1.09,3.05c4.01,0.24,8.05,0.14,12.07,0.14c0.06-0.52,0.12-1.03,0.18-1.55c-3.88-0.64-7.77-1.29-13.03-2.16
			c3.65-0.85,8.04-2.63,8.55-1.86c2.36,3.57,4.7,0.73,6.96,0.82c0.41,0.02,0.81,0.31,1.51,0.6c-1.37,0.87-2.3,1.47-4,2.55
			C190.51,449.89,192.5,450.25,194.37,450.59z M491.27,267.57c0,3.64,0,6.46,0,9.22c4.16,0,7.92,0,11.73,0c0-3.2,0-6.05,0-9.22
			C498.92,267.57,495.06,267.57,491.27,267.57z M453.78,309.15c0,0.47,0,0.93,0.01,1.4c15.76,0,31.52,0.03,47.28-0.08
			c0.72,0,1.43-1.21,2.15-1.85c-0.86-0.6-1.69-1.62-2.6-1.71c-5.19-0.51-10.21,0.79-15.31,1.41c-8.3,1.01-16.8,0.35-25.22,0.44
			C457.97,308.79,455.88,309.02,453.78,309.15z M506.29,435.53c-0.06,0.44-0.11,0.87-0.17,1.31c1.7,0.14,3.4,0.27,5.67,0.45
			c-2.68,0.85-4.81,1.52-6.94,2.19c0.04,0.34,0.07,0.69,0.11,1.03c2.71,0,5.42,0,8.13,0c-0.01,0.26-0.02,0.53-0.03,0.79
			c-2.4,0.3-4.81,0.6-7.21,0.91c0.03,0.39,0.05,0.79,0.08,1.18c1.22-0.09,2.49-0.43,3.65-0.22c1.36,0.25,2.96,0.65,3.87,1.57
			c2.54,2.56,4.9,2.72,8.01-0.17c-2.19-0.87-4.25-1.68-7-2.77c3.88-2.15,7.06-3.91,11.32-6.26
			C518.49,435.53,512.39,435.53,506.29,435.53z M503.06,257.46c-0.99-0.1-1.52-0.19-2.05-0.19c-2.35-0.02-4.7,0.1-7.04-0.05
			c-2.46-0.15-2.99,1.06-3.06,3.24c-0.2,6.1-0.05,6.35,6,6.01c2.02-0.11,4.03-0.37,6.16-0.57
			C503.06,262.99,503.06,260.42,503.06,257.46z M173.55,434.94c0.7,2.66,0.72,4.98,1.47,5.25c4.45,1.59,8.91,1.72,12.74-1.82
			c-0.55,1.04-1.1,2.07-1.78,3.37c3.19-0.32,5.97-0.6,8.69-0.88c0.36-4.89-0.39-5.62-4.89-5c-1.75,0.24-3.52,0.95-5.23,0.8
			C181.24,436.39,177.98,435.67,173.55,434.94z M238.29,436.92c-0.17-0.27-0.34-0.55-0.52-0.82c-11.89,0-23.78,0-35.67,0
			c-0.06,0.37-0.13,0.74-0.19,1.11c2.14,0.69,4.28,1.96,6.42,1.96c8.65-0.02,17.29-0.37,25.93-0.76
			C235.63,438.35,236.95,437.43,238.29,436.92z M398.47,429.76c0.25,0.38,0.49,0.77,0.74,1.15c8.8,0,17.6,0,26.4,0
			c0.04-0.53,0.08-1.06,0.13-1.59c-7.08-4.03-15.05-1.43-22.6-1.82C401.62,427.43,400.03,428.97,398.47,429.76z M529.27,430.99
			c0.31-0.44,0.62-0.88,0.93-1.32c-1.3-0.83-2.56-2.32-3.89-2.37c-6.06-0.25-12.14-0.24-18.19,0.02c-1.3,0.06-2.53,1.57-3.79,2.41
			c0.23,0.42,0.47,0.84,0.7,1.26C513.11,430.99,521.19,430.99,529.27,430.99z M502.41,248.31c-3.77,0-7.57,0-11.06,0
			c0,2.68,0,5.19,0,7.7C505.89,256.41,503.4,256.36,502.41,248.31z M502.95,297.34c-4.33,0-8.16,0-12.56,0
			c0.81,2.83,1.53,5.31,2.29,7.95c3.3,0,6.68,0,10.27,0C502.95,302.56,502.95,300.13,502.95,297.34z M303.87,430.53
			c0.23-0.31,0.47-0.63,0.7-0.94c-1.29-0.8-2.54-2.23-3.86-2.29c-5.96-0.25-11.93-0.25-17.89-0.02c-1.6,0.06-3.16,1.27-4.73,1.95
			c0.12,0.43,0.24,0.86,0.35,1.29C286.91,430.53,295.39,430.53,303.87,430.53z M172.77,429.16c0.12,0.57,0.25,1.14,0.37,1.71
			c7.54,0,15.09,0,22.63,0c0.22-0.35,0.45-0.7,0.67-1.04c-1.02-0.87-2.12-2.58-3.05-2.49C186.54,428,179.13,425.15,172.77,429.16z
			 M455.09,451.67c0.41,0.25,0.82,0.51,1.23,0.76c0.95-0.88,1.89-1.76,2.61-2.43c0.99,0.96,2.01,2.69,2.83,2.6
			c4.31-0.46,8.58-1.38,12.86-2.14c0.01-0.17,0.03-0.33,0.04-0.5c-3.05-0.47-6.11-0.95-9.16-1.42c0.05-0.39,0.09-0.79,0.14-1.18
			c4.41,0,8.81,0,14.22,0c-5.81-3.71-16.42-2.49-23.27,2C455.88,449.82,455.58,450.89,455.09,451.67z M319.71,385.94
			c-1.12-0.26-2.19-0.66-3.27-0.7c-1.17-0.04-2.54-0.06-3.5,0.48c-1.27,0.72-2.37,1.88-3.29,3.04c-0.81,1.03-1.27,2.33-1.89,3.51
			c1.23,0.55,2.46,1.58,3.68,1.58C319.53,393.82,319.53,393.75,319.71,385.94z M487.36,375.77c0,2.06,0,4.45,0,7
			c5.51,0,11.06,0,16.73,0c-2.16-1.24-4.68-1.93-5.99-3.59C495.25,375.6,492.21,373.74,487.36,375.77z M519.78,449.23
			c-0.01,0.51-0.03,1.01-0.04,1.52c-2.41-1.15-4.73-2.84-7.26-3.29c-2.41-0.43-5.05,0.44-7.6,0.74c0,0.54,0,1.07,0.01,1.61
			c3.84,4.39,9.38,1.74,14.05,2.6c0.98,0.18,2.35-1.73,4.32-3.29c0.69,0,2.45,0,4.53,0c0.09-1.66,0.17-3.07,0.28-5.1
			c-2.25,0.6-3.87,1.04-5.48,1.47c0.07,0.32,0.15,0.65,0.22,0.97c0.97,0,1.94,0,3.58,0C523.74,447.57,521.76,448.4,519.78,449.23z
			 M434.13,413.24c-2.18,0.27-3.75,0.46-5.31,0.66c0.03,0.34,0.06,0.68,0.1,1.01c3.77,0,7.55,0,11.4,0c0-2.84,0-5.64,0-8.61
			c-3.64,0.2-6.95,0.38-10.2,0.56C431.56,409.15,432.77,411.08,434.13,413.24z M255.7,376.44c0,2.44,0,4.14,0,5.82
			c6.49,1.7,11.4-1,11.71-6.52c-3.71-0.32-7.45-0.63-12.04-1.03c1.45,1.58,2.14,2.32,2.82,3.05c-0.1,0.1-0.2,0.2-0.3,0.29
			C257.31,377.63,256.72,377.2,255.7,376.44z M455.32,438.63c-0.09-0.48-0.18-0.96-0.27-1.43c-5.45-2.05-21.3-1.69-24.46,0.86
			c2.47,0,4.59,0,7.01,0c-0.55,1.08-0.9,1.75-1.59,3.09C442.79,440.26,449.06,439.44,455.32,438.63z M132.42,323.26
			c-0.92-0.31-1.97-0.44-2.72-0.99c-0.88-0.64-2.06-1.6-2.12-2.48c-0.24-3.92-6.2-7.29-9.98-5.35
			C120.72,320.35,124.51,325.1,132.42,323.26z M387.05,394.2c1.15-9.19,0.99-9.41-6.68-8.65c1.16,0.71,1.91,1.17,2.66,1.63
			c-0.42-0.01-0.83-0.02-1.25-0.03c-0.63,2.29-1.27,4.58-1.96,7.05C382.75,394.2,384.79,394.2,387.05,394.2z M431.11,402.8
			c0.02,0.46,0.04,0.93,0.06,1.39c3.04,0.29,6.07,0.58,9.26,0.89c0-2.99,0-5.86,0-8.71c-4.44-0.53-6.25,1.13-6.23,5.5
			C433.18,402.18,432.14,402.49,431.11,402.8z M312.03,428.37c-0.44,0.62-0.88,1.23-1.32,1.85c1.07,0.68,2.14,1.36,2.78,1.76
			c-0.46,0.63-2.01,1.94-1.77,2.58c0.48,1.25,1.94,2.13,3.41,3.57c0.73-1.94,1.13-3.01,1.53-4.08c0.66,0.54,1.32,1.09,2.33,1.93
			c0.21-2.9,0.38-5.25,0.56-7.61C316.7,428.37,314.36,428.37,312.03,428.37z M262.46,253.88c0.1-0.36,0.28-0.98,0.34-1.19
			c-2.07-0.76-4.05-1.71-6.15-2.13c-0.75-0.15-2.29,0.82-2.52,1.58c-0.36,1.16,0.09,2.57,0.2,3.9c5.07,0,9.76,0,14.46,0
			c0.05-0.29,0.09-0.58,0.14-0.86C266.8,254.74,264.68,254.32,262.46,253.88z M283.06,448.89c-0.07,0.39-0.13,0.78-0.2,1.17
			c0.47,0.21,0.93,0.55,1.41,0.61c5.35,0.62,10.71,1.25,16.08,1.7c0.6,0.05,1.29-1,1.94-1.53c-0.82-0.65-1.63-1.84-2.48-1.86
			C294.23,448.81,288.65,448.89,283.06,448.89z M272.96,428.78c-0.2-0.31-0.39-0.63-0.59-0.94c-4.09-0.18-8.19-0.47-12.28-0.45
			c-0.87,0-1.74,1.13-2.61,1.73c0.77,0.59,1.52,1.66,2.31,1.69c3.58,0.13,7.17,0.1,10.74-0.16
			C271.38,430.57,272.15,429.42,272.96,428.78z M118.32,265.99c0.93,2.08,1.4,4.33,2.75,5.78c1.38,1.49,3.51,2.58,5.5,3.08
			c1.18,0.3,2.73-0.89,3.77-1.28c-2.1-1.49-3.83-2.25-4.87-3.56C123.47,267.49,121.16,266.1,118.32,265.99z M353.44,181.08
			c0.05,0.25,0.11,0.5,0.16,0.76c4.8,0,9.6,0,14.41,0c0.1-0.29,0.21-0.58,0.31-0.87c-2.77-1.56-5.54-3.12-7.89-4.44
			c-0.71,1.58-1.24,2.76-2.03,4.53c-0.41-1.38-0.58-1.94-0.8-2.7C356.04,179.37,354.74,180.22,353.44,181.08z M416.46,460.61
			c-0.05-0.35-0.1-0.7-0.15-1.05c-2.14-0.59-4.29-1.68-6.43-1.65c-2.47,0.03-4.95,0.95-7.37,1.67c-0.97,0.29-1.79,1.07-2.68,1.63
			c1.11,0.49,2.28,1.5,3.3,1.36c2.89-0.4,5.69-1.39,8.58-1.9C413.25,460.39,414.87,460.61,416.46,460.61z M211.64,375.09
			c-0.38-0.08-0.75-0.16-1.13-0.24c-0.5,1.71-1,3.43-1.57,5.35c-2.97,0.36-6.57,0.79-10.17,1.23c0.04,0.35,0.07,0.7,0.11,1.05
			c4.23,0,8.47,0,12.76,0C211.64,379.88,211.64,377.49,211.64,375.09z M187.75,453.96c-4.11,0-8.67,0-13.23,0
			c-0.04,0.33-0.08,0.65-0.12,0.98c2.39,0.63,4.78,1.25,7.16,1.88c-0.08,0.34-0.16,0.67-0.23,1.01c-2.16,0-4.31,0-6.96,0
			C180.84,461.38,183.79,455.34,187.75,453.96z M86.7,289.73c5.28,0.47,9.24-5.3,7.86-12.27C91.84,281.7,89.24,285.77,86.7,289.73z
			 M102.08,373.29c-5.45-4.9-1.77-11.75-3.77-17.35c-0.59,2.67-0.66,5.31-1.18,7.85C96.25,368.1,97.02,371.52,102.08,373.29z
			 M97.71,382.28c-0.31,0-0.62,0-0.92,0c0,10.03,0,20.07,0,30.1c0.31,0,0.62,0,0.92,0C97.71,402.35,97.71,392.31,97.71,382.28z
			 M528.16,436.81c-0.29-0.19-0.58-0.38-0.87-0.57c-2.51,1.53-5.02,3.05-7.53,4.58c0.01,0.45,0.01,0.9,0.02,1.36
			c1.75,0.24,3.51,0.66,5.26,0.64c1.01-0.02,2.01-0.76,3.02-1.18c-0.65-0.86-1.3-1.72-1.86-2.46
			C526.69,438.58,527.43,437.69,528.16,436.81z M290.37,456.88c0.11-0.5,0.21-1.01,0.32-1.51c-2.96-0.15-5.91-0.29-9.16-0.45
			c-0.16,1.61-0.28,2.92-0.42,4.34C284.45,458.4,287.41,457.64,290.37,456.88z M434.78,385.68c2,1.14,3.42,1.96,4.85,2.77
			c-0.14,0.32-0.28,0.63-0.42,0.95c-0.97-0.12-1.95-0.24-2.92-0.37c0.8,4.56,0.8,4.56,4.12,3.83
			C440.64,385.21,440.64,385.21,434.78,385.68z M452.2,276.76c0.26,0.02,0.53,0.03,0.79,0.05c0-6.26,0-12.51,0-18.77
			c-0.26,0-0.53-0.01-0.79-0.01C452.2,264.27,452.2,270.51,452.2,276.76z M123.43,85.11c-2.8,0.93-5.05,1.59-7.21,2.46
			c-0.69,0.28-1.16,1.13-1.73,1.71c0.72,0.52,1.44,1.5,2.15,1.49C119.85,90.73,122.69,89.89,123.43,85.11z M444.78,442.37
			c-4.25,0-8.05,0-12,0C435.76,445.62,440.69,445.71,444.78,442.37z M116.83,153.08c-2.18-2.93-4.08-5.48-6.25-8.41
			C109.95,151.51,111.85,154.17,116.83,153.08z M99.11,438.27c-3.99,2.3-3.96,4.36-1.51,6.68c0.13,0.13-0.52,1.23-0.94,1.77
			c-1.68,2.15-1.51,4.53,0.36,6.04C97.67,448.24,98.34,443.6,99.11,438.27z M119.53,251.76c0.49-0.44,0.98-0.88,1.47-1.32
			c-2.25-2.41-4.5-4.81-6.75-7.22c-0.5,0.47-1,0.94-1.5,1.42C115.01,247.01,117.27,249.39,119.53,251.76z M288.95,179.51
			c0.03-0.14,0.05-0.28,0.08-0.42c-8.94,0-17.88,0-26.81,0c0,0.14,0,0.28,0,0.42C271.12,179.51,280.04,179.51,288.95,179.51z
			 M389.93,377.67c-1.86,0.45-3.67,0.75-3.66,0.92c0.27,3.77-2.99,3-5.47,4.11c4.82,0,9.05,0,13.29,0c0.01-0.13,0.01-0.25,0.02-0.38
			c-2.14-0.17-4.28-0.34-7.34-0.58C387.87,380.31,388.56,379.43,389.93,377.67z M119.23,337.61c-2.38,0.22-4.06,0.38-6.6,0.62
			c1.62,2.19,2.86,3.86,4.33,5.86C117.86,341.52,118.47,339.77,119.23,337.61z M84.67,339.52c0.37,0.28,0.75,0.57,1.12,0.85
			c2.75-3.68,5.49-7.36,8.24-11.03c-0.28-0.21-0.56-0.41-0.84-0.62C90.35,332.31,87.51,335.92,84.67,339.52z M227.73,445.92
			c2.53,4,4.71,4.15,6.87,0C231.99,445.92,229.86,445.92,227.73,445.92z M97.32,415.19c-0.3-0.01-0.61-0.02-0.91-0.02
			c0,5.26,0,10.52,0,15.78c0.3,0.01,0.61,0.02,0.91,0.03C97.32,425.71,97.32,420.45,97.32,415.19z M114.23,285.67
			c0.3-0.31,0.6-0.63,0.9-0.94c-2.12-1.88-4.24-3.77-6.35-5.65C109.17,282.51,110.91,284.77,114.23,285.67z M89.23,179.08
			c0.36,0.35,0.72,0.69,1.08,1.04c1.79-1.92,3.57-3.83,5.36-5.75C91.1,173.52,90.87,177.02,89.23,179.08z M191.53,355.86
			c0-0.16,0.01-0.32,0.01-0.48c-2.98,0-5.96,0-8.93,0c0,0.16-0.01,0.32-0.01,0.48C185.57,355.86,188.55,355.86,191.53,355.86z
			 M522.62,355.89c0.03-0.19,0.06-0.37,0.09-0.56c-4.23,0-8.46,0-12.69,0c-0.01,0.19-0.01,0.37-0.02,0.56
			C514.21,355.89,518.42,355.89,522.62,355.89z M123.4,113.68c0.22-0.4,0.45-0.8,0.67-1.2c-2.43-1.39-4.85-2.78-8.22-4.72
			C117.04,113.25,121.41,111.57,123.4,113.68z M218.72,446.83c0.04-0.55,0.08-1.1,0.12-1.64c-3.28,0-6.55,0-9.83,0
			c0,0.3-0.01,0.61-0.01,0.91C212.23,446.34,215.48,446.58,218.72,446.83z M409.76,454.8c-0.07,0.4-0.13,0.8-0.2,1.2
			c2.53,0,5.07,0,7.6,0c-0.01-0.4-0.03-0.8-0.04-1.2C414.67,454.8,412.22,454.8,409.76,454.8z M136.24,177.9
			c0.35-0.4,0.7-0.8,1.05-1.2c-2.07-1.75-4.14-3.5-6.21-5.25c-0.32,0.36-0.64,0.73-0.96,1.09
			C132.15,174.33,134.2,176.12,136.24,177.9z"/>
		<path d="M376.44,242.1c12.51,0,24.43,0,36.34,0c-4.87,0.81-3.63,4.61-3.64,7.73c-0.04,8.56-0.02,17.12-0.02,25.71
			c-4.2,0-8.02,0-12.19,0c0-4.99,0-9.76,0-15.17c3.62,0,7.34,0,11.06,0c0-0.47,0-0.93,0-1.4c-3.63,0-7.27,0-11.36,0
			c0-4.93,0-9.12,0-13.3c-0.34,0-0.68-0.01-1.02-0.01c0,4.14,0,8.29,0,13.12c-4.64,0-8.77,0-12.89,0c0,0.46-0.01,0.92-0.01,1.39
			c4.1,0,8.19,0,12.54,0c0,5.46,0,10.23,0,15.59c-4.43,0-8.61,0-12.79,0c0,0.37,0,0.74,0,1.11c8.67,0,17.34,0,26.34,0
			c0,8.02,0,15.53,0,23.26c-9.14,0-18.11,0-27.53,0c-0.1-1.32-0.29-2.66-0.29-3.99c0-15.8,0.02-31.61,0.04-47.41
			C381.04,243.74,381.06,243.74,376.44,242.1z"/>
		<path d="M346.5,242.65c9.55,0,18.76,0,28.14,0c0,5.31,0,10.38,0,15.75c-4.35,0-8.57,0-13.46,0c0-4.41,0-9,0-13.58
			c-0.37,0-0.74,0-1.11,0.01c0,4.41,0,8.81,0,13.98c-4.27,0-8.11,0-11.94,0c0,0.44,0,0.88,0,1.32c3.74,0,7.49,0,11.52,0
			c0,5.32,0,10.09,0,15.59c-3.97,0-7.94,0-11.92,0c0.01,0.42,0.01,0.85,0.02,1.27c8.82,0,17.65,0,26.75,0c0,7.95,0,15.35,0,23.04
			c-9.35,0-18.54,0-27.99,0C346.5,280.98,346.5,262.05,346.5,242.65z"/>
		<path d="M311.88,300c0-7.63,0-15.05,0-22.65c9.32,0,18.4,0,27.8,0c0,7.52,0,14.93,0,22.65C330.57,300,321.37,300,311.88,300z"/>
		<path d="M302.76,305.16c2.02-0.13,4.04-0.39,6.06-0.39c34.53-0.02,69.06-0.01,103.59-0.01c2.47,0,5.31,0.68,5.93-3.35
			c0.31,0.18,0.62,0.36,0.93,0.53c-0.16,2.14-0.33,4.28-0.5,6.57c-31.35,0-62.21,0-93.08,0c-5.68,0-11.36,0.11-17.03-0.09
			c-2.06-0.07-4.09-0.89-6.14-1.37C302.61,306.42,302.69,305.79,302.76,305.16z"/>
		<path d="M360.98,260.51c5.04,0,9.16,0,13.58,0c0,5.09,0,10.01,0,15.12c-3.58,0-7.14,0.18-10.66-0.11
			c-1.03-0.09-2.72-1.48-2.78-2.36C360.82,269.04,360.98,264.9,360.98,260.51z"/>
		<path d="M438.27,310.89c-12.04,0-24.08,0-36.12,0c0-0.22,0.01-0.45,0.01-0.67c12.09,0,24.18,0,36.27,0
			C438.38,310.44,438.32,310.66,438.27,310.89z"/>
		<path d="M488.07,441.14c-9.94,0-19.36,0-28.78,0c0-0.25,0.01-0.49,0.01-0.74c2.76-0.7,5.53-1.4,8.51-2.16
			c-0.18,0.32-0.4,0.72-0.81,1.49C474.23,438.2,481.17,437.99,488.07,441.14z"/>
	</g>
	<g>
		<g>
			<path class="st0" d="M102.36,577.35c-2.23,7.84-6.36,19.7-8.85,25.04c-4.3,0.95-17.11,4.02-29.19,4.02
				c-41.09,0-59.35-26.72-59.35-52.89c0-32.74,24.95-55.05,62.21-55.05c13.77,0,25.63,3.17,30.04,3.76
				c0.74,7.36,1.85,18.34,3.02,25.67l-5.86,1.11c-3.28-11.79-7.72-17.89-16.03-21.23c-3.93-1.7-9.93-2.5-14.83-2.5
				c-24.16,0-36.55,19.29-36.55,44.69c0,29.65,15.28,49.36,38.45,49.36c14.35,0,22.92-7.16,31.34-24.09L102.36,577.35z"/>
			<path class="st0" d="M221.14,577.61c-0.85,4.24-5.25,21.85-6.73,26.41h-80.67v-5.28c14.58-1.32,15.59-2.34,15.59-15.58v-61.45
				c0-13.73-1.85-14.63-13.05-15.64v-5.38h50.61c16.08,0,21.87-0.16,23.98-0.32c0.16,3.25,0.9,15.9,1.53,25.25l-5.7,0.79
				c-1.43-5.4-3.74-10.81-6.11-13.84c-2.75-3.9-5.37-4.91-13.98-4.91h-12c-5.65,0-6.18,0.37-6.18,5.5v33.89h16.3
				c9.96,0,11.27-2.38,13.49-13.5h5.75v34.5h-5.75c-2.38-11.65-3.65-13.45-13.65-13.45h-16.14v28.84c0,11.02,1.43,13.53,10.62,13.69
				h12.51c9.18,0,11.29-1.22,14.78-5.46c3.64-4.17,6.88-10.27,9.31-15.45L221.14,577.61z"/>
			<path class="st0" d="M297.34,500.69c21.07,0,35.73,4.35,45.8,13.83c8,7.53,14.03,18.66,14.03,34.43
				c0,18.39-7.63,32.77-19.87,41.99c-11.87,8.96-27.09,13.08-45.71,13.08h-41.43v-5.38c12.64-1.07,13.79-2.38,13.79-15.52v-61.46
				c0-13.46-1.8-14.51-13.79-15.58v-5.38H297.34z M283.15,581.95c0,11.51,3.64,15.16,15.36,15.16c23.96,0,37.14-16.56,37.14-45.82
				c0-15.88-4.75-29.07-13.89-36.19c-6.9-5.95-15.5-8.01-26.15-8.01c-6.33,0-9.42,1.16-10.6,2.23c-1.43,1.26-1.86,3.63-1.86,8.8
				V581.95z"/>
			<path class="st0" d="M443.3,604.02v-5.38c10.13-1.38,10.57-3.07,8.35-9.63c-1.76-5.27-4.52-12.7-7.24-20.34h-32.17
				c-2.03,5.71-4.31,11.8-6.12,17.29c-3.39,10.13-0.14,11.4,12.59,12.68v5.38h-38.37v-5.38c10.01-1.27,12.56-2.59,18.02-16.28
				l33.01-82.63l6.74-1.26c10.12,27.49,20.98,56.4,31.21,83.28c5.6,14.45,7.03,15.62,17.7,16.89v5.38H443.3z M428.64,524.98
				c-4.78,12.22-9.56,24.21-13.81,36.15h26.83L428.64,524.98z"/>
			<path class="st0" d="M610.11,605.09c-1.34,0-3.2-0.06-5.16-0.21c-17.18-0.9-23.18-4.75-28.72-12.53
				c-6.19-8.52-11.19-18.33-16.49-27.37c-2.66-4.57-4.83-5.52-10.98-5.52l-4.01-0.1v23.82c0,13.1,1.65,14.1,13.85,15.48v5.38h-46.47
				v-5.38c12.47-1.33,13.79-2.38,13.79-15.48v-61.77c0-12.89-1.64-14.2-13.79-15.32v-5.38h44.15c13.26,0,21.25,1.53,27.6,5.82
				c6.41,4.24,10.71,11.29,10.71,21.09c0,13.98-9.16,21.84-20.09,26.31c2.55,4.83,8.97,15.27,13.74,22.53
				c5.67,8.63,9,12.81,12.25,16.48c3.88,4.3,6.29,5.74,10.57,7.11L610.11,605.09z M550.22,553.22c7.34,0,12.58-1.17,16.25-4.3
				c5.58-4.51,7.92-10.66,7.92-18.93c0-16.91-10.25-23-20.32-23c-4.4,0-6.69,0.64-7.7,1.59c-1.22,1.01-1.6,2.81-1.6,6.32v38.33
				H550.22z"/>
		</g>
		<g>
			<path class="st0" d="M34.24,680.98v-2.43c4.58-0.62,4.78-1.39,3.77-4.35c-0.79-2.38-2.04-5.74-3.27-9.19H20.2
				c-0.92,2.58-1.95,5.33-2.77,7.81c-1.53,4.58-0.06,5.15,5.69,5.73v2.43H5.78v-2.43c4.53-0.57,5.68-1.17,8.14-7.36l14.92-37.35
				l3.05-0.57c4.57,12.43,9.48,25.49,14.1,37.64c2.53,6.53,3.18,7.06,8,7.63v2.43H34.24z M27.61,645.25
				c-2.16,5.53-4.32,10.94-6.24,16.34H33.5L27.61,645.25z"/>
			<path class="st0" d="M115.28,636.71c-4.46,0.55-5.87,1.41-6.09,4.67c-0.17,2.63-0.36,5.27-0.36,11.67v28.67h-3.57l-30.24-36.51
				v16.84c0,6.33,0.17,9.28,0.36,11.36c0.24,3.34,1.85,4.79,7.11,5.13v2.43H64.8v-2.43c4.22-0.36,5.99-1.44,6.37-4.86
				c0.26-2.49,0.41-5.3,0.41-11.65v-17.48c0-2.25-0.14-3.68-1.48-5.44c-1.32-1.8-2.97-2.09-6.16-2.4v-2.43h12.88l28.46,33.34v-14.57
				c0-6.4-0.1-9.02-0.31-11.51c-0.22-3.14-1.54-4.47-7.43-4.83v-2.43h17.75V636.71z"/>
			<path class="st0" d="M150.13,634.28c9.52,0,16.15,1.97,20.7,6.25c3.61,3.4,6.34,8.43,6.34,15.56c0,8.31-3.45,14.81-8.98,18.98
				c-5.37,4.05-12.24,5.91-20.66,5.91H128.8v-2.43c5.71-0.48,6.23-1.08,6.23-7.02v-27.78c0-6.09-0.82-6.56-6.23-7.04v-2.43H150.13z
				 M143.71,671.01c0,5.2,1.65,6.85,6.94,6.85c10.83,0,16.79-7.48,16.79-20.71c0-7.18-2.14-13.14-6.28-16.36
				c-3.12-2.69-7.01-3.62-11.82-3.62c-2.86,0-4.26,0.52-4.79,1.01c-0.65,0.57-0.84,1.64-0.84,3.98V671.01z"/>
		</g>
		<g>
			<path class="st0" d="M241.07,649.49c-2.09-7.14-5.18-14.88-15.4-14.88c-7.17,0-10.94,5.14-10.94,11.16
				c0,6.61,4.35,10.32,13.86,15.14c12.3,6.19,19.19,11.7,19.19,22.46c0,12.51-10.54,21.77-25.77,21.77c-6.9,0-13-1.88-17.95-3.5
				c-0.74-2.73-2.42-12.81-3.19-18.26l3.99-0.95c2.21,7.1,7.92,18.27,18.96,18.27c7.15,0,11.5-4.65,11.5-11.75
				c0-7.13-4.16-10.76-13.58-15.84c-11.51-6.21-18.66-11.65-18.66-22.7c0-10.96,8.74-20.16,24.58-20.16
				c7.11,0,12.96,1.66,15.35,2.02c0.44,4.04,1.1,9.31,1.98,16.34L241.07,649.49z"/>
			<path class="st0" d="M329.53,650.26c-1.14-4.53-3.18-8.53-4.32-10.23c-1.91-2.55-2.87-3.39-9.22-3.39h-8.45v52.49
				c0,9.03,1.03,9.89,11.07,10.62v3.73h-35.03v-3.73c9.68-0.73,10.64-1.55,10.64-10.62v-52.49h-7.89c-6.14,0-7.9,0.88-9.92,3.75
				c-1.47,2.13-2.78,5.64-4.21,9.94h-3.88c0.73-7.59,1.47-15.61,1.73-21.21h3.04c1.65,2.58,2.94,2.68,6.17,2.68h43.96
				c3.02,0,4.33-0.58,6.13-2.68h3c0.07,4.83,0.51,13.91,1.06,20.81L329.53,650.26z"/>
			<path class="st0" d="M393.14,630.25c19.86,0,36.59,14.74,36.59,36.54c0,23.57-16.53,38.35-37.18,38.35
				c-21.75,0-37.55-16.1-37.55-37.2C355,648.78,368.65,630.25,393.14,630.25z M391.29,634.83c-11.64,0-20.95,10.8-20.95,30.71
				c0,19.29,8.74,34.98,23.9,34.98c11.48,0,20.3-10.07,20.3-30.64C414.54,647.58,404.67,634.83,391.29,634.83z"/>
			<path class="st0" d="M529.62,635.53c-6.84,0.84-9.02,2.16-9.35,7.16c-0.25,4.03-0.55,8.09-0.55,17.92v44.01h-5.48l-46.42-56.03
				v25.85c0,9.71,0.26,14.24,0.55,17.44c0.36,5.12,2.83,7.35,10.92,7.87v3.73h-27.16v-3.73c6.48-0.55,9.2-2.21,9.78-7.47
				c0.4-3.82,0.62-8.13,0.62-17.88v-26.83c0-3.45-0.22-5.64-2.28-8.35c-2.02-2.76-4.55-3.2-9.46-3.68v-3.73h19.77l43.68,51.17
				v-22.36c0-9.83-0.15-13.85-0.48-17.66c-0.33-4.82-2.37-6.87-11.4-7.42v-3.73h27.24V635.53z"/>
			<path class="st0" d="M609.75,685.16c-0.59,2.94-3.64,15.16-4.67,18.33h-55.97v-3.66c10.11-0.92,10.81-1.62,10.81-10.81v-42.63
				c0-9.53-1.28-10.15-9.05-10.85v-3.73h35.11c11.16,0,15.17-0.11,16.64-0.22c0.11,2.25,0.62,11.03,1.06,17.52l-3.95,0.55
				c-0.99-3.75-2.6-7.5-4.24-9.6c-1.91-2.71-3.73-3.41-9.7-3.41h-8.33c-3.92,0-4.29,0.26-4.29,3.82v23.51h11.31
				c6.91,0,7.82-1.65,9.36-9.37h3.99v23.94h-3.99c-1.65-8.08-2.53-9.33-9.47-9.33h-11.2v20.01c0,7.65,0.99,9.39,7.37,9.5h8.68
				c6.37,0,7.83-0.85,10.26-3.79c2.53-2.89,4.77-7.12,6.46-10.72L609.75,685.16z"/>
		</g>
	</g>
	<g>
		<path class="st0" d="M119.65,753.45c-0.75,1.5-1.89,2.73-3.45,3.68s-3.31,1.43-5.27,1.43c-3.27,0-5.9-0.91-7.87-2.73
			s-2.96-4.4-2.96-7.73c0-3.44,0.97-6.19,2.92-8.26c1.95-2.06,4.47-3.1,7.58-3.1c2.24,0,4.09,0.5,5.55,1.49s2.59,2.37,3.38,4.11
			l-4.21,1.57c-0.48-1.07-1.1-1.84-1.85-2.32s-1.68-0.71-2.79-0.71c-1.63,0-2.97,0.65-4.02,1.93c-1.05,1.29-1.57,2.93-1.57,4.93
			c0,2.11,0.54,3.73,1.62,4.87c1.08,1.14,2.54,1.71,4.38,1.71c1.02,0,1.91-0.24,2.68-0.71c0.77-0.47,1.36-1.17,1.78-2.09
			L119.65,753.45z"/>
		<path class="st0" d="M155.29,749.58c0,2.69-0.75,4.86-2.25,6.51c-1.5,1.65-3.7,2.48-6.6,2.48c-2.81,0-4.95-0.81-6.41-2.43
			c-1.46-1.62-2.18-3.75-2.18-6.38v-12.65h4.77v12.47c0,1.58,0.37,2.78,1.1,3.6s1.7,1.23,2.9,1.23c1.17,0,2.11-0.39,2.84-1.18
			s1.09-1.94,1.09-3.46v-12.65h4.75V749.58z"/>
		<path class="st0" d="M173.58,754.07l4-2.09c0.45,0.91,1.04,1.58,1.77,2.01s1.53,0.65,2.4,0.65c1.07,0,1.86-0.2,2.38-0.61
			c0.52-0.41,0.78-0.97,0.78-1.68c0-0.74-0.28-1.31-0.85-1.74c-0.56-0.42-1.45-0.75-2.67-0.97c-2.33-0.45-4.05-1.17-5.14-2.17
			s-1.64-2.37-1.64-4.13c0-2,0.71-3.6,2.12-4.79c1.41-1.2,3.27-1.79,5.59-1.79c1.58,0,2.96,0.32,4.15,0.96
			c1.19,0.64,2.12,1.55,2.79,2.74l-3.91,2.02c-0.39-0.67-0.84-1.15-1.34-1.45c-0.5-0.3-1.15-0.45-1.94-0.45
			c-0.92,0-1.63,0.2-2.12,0.6c-0.5,0.4-0.74,0.91-0.74,1.52c0,0.62,0.25,1.12,0.74,1.49c0.49,0.38,1.41,0.68,2.75,0.92
			c2.24,0.4,3.92,1.15,5.07,2.23c1.14,1.08,1.71,2.55,1.71,4.41c0,2.1-0.67,3.76-2.02,4.99c-1.34,1.23-3.26,1.85-5.75,1.85
			c-1.8,0-3.43-0.4-4.88-1.18S174.31,755.49,173.58,754.07z"/>
		<path class="st0" d="M222.01,740.98h-5.65v17.22h-4.77v-17.22h-5.65v-3.87h16.06V740.98z"/>
		<path class="st0" d="M247.82,758.57c-3.04,0-5.54-0.98-7.49-2.95c-1.95-1.97-2.93-4.53-2.93-7.68c0-3.33,0.99-6.03,2.97-8.09
			s4.57-3.09,7.78-3.09c3.03,0,5.5,0.99,7.4,2.96c1.91,1.97,2.86,4.57,2.86,7.79c0,3.31-0.99,5.99-2.96,8.02
			S250.94,758.57,247.82,758.57z M247.91,754.4c1.66,0,2.99-0.58,4-1.76s1.52-2.8,1.52-4.88c0-2.17-0.49-3.85-1.47-5.06
			c-0.98-1.21-2.29-1.81-3.93-1.81c-1.69,0-3.04,0.62-4.07,1.86c-1.03,1.24-1.54,2.88-1.54,4.92c0,2.07,0.51,3.71,1.54,4.91
			C244.99,753.8,246.3,754.4,247.91,754.4z"/>
		<path class="st0" d="M300.8,758.2h-4.69v-12.62c0-0.54,0-1.07,0.01-1.59s0.02-1.1,0.04-1.75h-0.12c-0.11,0.32-0.21,0.62-0.29,0.88
			c-0.09,0.26-0.17,0.51-0.25,0.74l-4.94,14.34h-3.88l-5.03-14.19c-0.1-0.28-0.18-0.54-0.24-0.76c-0.06-0.23-0.16-0.56-0.3-1h-0.13
			c0.03,0.86,0.05,1.63,0.06,2.31s0.01,1.34,0.01,1.99v11.66h-4.35v-21.09h7.03l4.31,12.5c0.16,0.44,0.28,0.83,0.38,1.17
			c0.1,0.34,0.22,0.76,0.37,1.26h0.09c0.18-0.53,0.32-0.95,0.42-1.25c0.1-0.3,0.24-0.71,0.42-1.21l4.31-12.47h6.78V758.2z"/>
		<path class="st0" d="M360.73,758.2h-4.77v-8.47h-8.74v8.47h-4.75v-21.09h4.75v8.41h8.74v-8.41h4.77V758.2z"/>
		<path class="st0" d="M389.41,758.57c-3.04,0-5.53-0.98-7.49-2.95s-2.93-4.53-2.93-7.68c0-3.33,0.99-6.03,2.97-8.09
			s4.57-3.09,7.78-3.09c3.03,0,5.5,0.99,7.41,2.96c1.91,1.97,2.86,4.57,2.86,7.79c0,3.31-0.99,5.99-2.96,8.02
			S392.53,758.57,389.41,758.57z M389.5,754.4c1.66,0,2.99-0.58,4-1.76s1.51-2.8,1.51-4.88c0-2.17-0.49-3.85-1.47-5.06
			s-2.29-1.81-3.93-1.81c-1.69,0-3.04,0.62-4.07,1.86c-1.03,1.24-1.54,2.88-1.54,4.92c0,2.07,0.51,3.71,1.54,4.91
			C386.57,753.8,387.89,754.4,389.5,754.4z"/>
		<path class="st0" d="M442.38,758.2h-4.69v-12.62c0-0.54,0-1.07,0.01-1.59s0.02-1.1,0.04-1.75h-0.12
			c-0.11,0.32-0.21,0.62-0.29,0.88c-0.09,0.26-0.17,0.51-0.25,0.74l-4.94,14.34h-3.88l-5.03-14.19c-0.1-0.28-0.18-0.54-0.24-0.76
			s-0.16-0.56-0.3-1h-0.13c0.03,0.86,0.05,1.63,0.06,2.31s0.01,1.34,0.01,1.99v11.66h-4.35v-21.09h7.03l4.31,12.5
			c0.16,0.44,0.28,0.83,0.38,1.17c0.1,0.34,0.22,0.76,0.37,1.26h0.09c0.18-0.53,0.32-0.95,0.42-1.25c0.1-0.3,0.24-0.71,0.42-1.21
			l4.31-12.47h6.78V758.2z"/>
		<path class="st0" d="M474.59,758.2h-12.65v-21.09h12.16v3.94h-7.41v4.59h6.9v3.91h-6.9v4.71h7.9V758.2z"/>
		<path class="st0" d="M491.68,754.07l4-2.09c0.45,0.91,1.04,1.58,1.77,2.01s1.53,0.65,2.4,0.65c1.07,0,1.86-0.2,2.38-0.61
			c0.52-0.41,0.78-0.97,0.78-1.68c0-0.74-0.28-1.31-0.85-1.74c-0.56-0.42-1.45-0.75-2.67-0.97c-2.33-0.45-4.05-1.17-5.14-2.17
			c-1.09-1-1.64-2.37-1.64-4.13c0-2,0.71-3.6,2.12-4.79s3.27-1.79,5.59-1.79c1.58,0,2.96,0.32,4.15,0.96
			c1.19,0.64,2.12,1.55,2.79,2.74l-3.91,2.02c-0.39-0.67-0.84-1.15-1.34-1.45c-0.5-0.3-1.15-0.45-1.94-0.45
			c-0.92,0-1.63,0.2-2.13,0.6c-0.5,0.4-0.74,0.91-0.74,1.52c0,0.62,0.25,1.12,0.74,1.49c0.49,0.38,1.41,0.68,2.75,0.92
			c2.24,0.4,3.92,1.15,5.07,2.23c1.14,1.08,1.71,2.55,1.71,4.41c0,2.1-0.67,3.76-2.01,4.99c-1.34,1.23-3.26,1.85-5.75,1.85
			c-1.8,0-3.43-0.4-4.88-1.18S492.41,755.49,491.68,754.07z"/>
	</g>
	<rect x="4.05" y="747.53" width="70.42" height="1.67"/>
	<rect x="540.63" y="747.53" width="70.42" height="1.67"/>
</g>
</svg>
