<?xml version="1.0" encoding="UTF-8"?>
<svg id="Layer_1" data-name="Layer 1" xmlns="http://www.w3.org/2000/svg" viewBox="0 0 366.91 448.54">
  <defs>
    <style>
      .cls-1 {
        letter-spacing: .5em;
      }

      .cls-2 {
        font-size: 42.94px;
      }

      .cls-2, .cls-3, .cls-4 {
        font-family: MinionConceptRoman-Semibold, 'Minion Variable Concept';
        font-variation-settings: 'wght' 600, 'opsz' 11;
        font-weight: 600;
      }

      .cls-2, .cls-3, .cls-4, .cls-5 {
        fill: #010101;
      }

      .cls-6 {
        letter-spacing: .5em;
      }

      .cls-7, .cls-8 {
        stroke-width: 0px;
      }

      .cls-9 {
        letter-spacing: .12em;
      }

      .cls-10 {
        letter-spacing: .12em;
      }

      .cls-11 {
        letter-spacing: .13em;
      }

      .cls-3 {
        font-size: 95px;
      }

      .cls-4 {
        font-size: 65.91px;
      }

      .cls-5 {
        font-family: SegoeUIVariable-BoldDisplay, 'Segoe UI Variable';
        font-size: 18px;
        font-variation-settings: 'wght' 700, 'opsz' 36;
        font-weight: 700;
      }

      .cls-12 {
        letter-spacing: .12em;
      }

      .cls-13 {
        letter-spacing: .13em;
      }

      .cls-8 {
        fill: #231f20;
      }

      .cls-14 {
        letter-spacing: .14em;
      }

      .cls-15 {
        letter-spacing: .45em;
      }

      .cls-16 {
        letter-spacing: .13em;
      }

      .cls-17 {
        letter-spacing: .13em;
      }

      .cls-18 {
        letter-spacing: .12em;
      }

      .cls-19 {
        letter-spacing: .14em;
      }

      .cls-20 {
        letter-spacing: .12em;
      }
    </style>
  </defs>
  <g>
    <path class="cls-7" d="M56.35,69.75c-.45.44-1.16.8-1.31,1.33-.6,2.12-1.94,3.19-4.46,3.43.95-1.3,1.76-2.41,2.58-3.52-.14-.13-.29-.26-.43-.39-1.57,1.64-3.13,3.28-4.52,4.74-1.16-.68-2.06-1.21-3.8-2.25,1.19-.5,2.16-.91,3.12-1.31-.2-.28-.4-.57-.61-.85-2.53.84-5.07,1.68-8.11,2.69.58-1.04.87-1.55,1.31-2.35-.99.13-1.7.22-2.93.38.83-1.26,1.42-2.15,2.11-3.21-1.7-.42-3.3-.81-5.66-1.4.96-.69,1.46-1.05,2.05-1.47-1.16-1.27-2.48-2.65-.03-4.03,3.29,1.9,10.46,1.31,12.07-.76-1.97-1.45-3.95-2.91-5.93-4.37.03-.28.05-.55.08-.83,5.45.79,10.83,1.18,15.51-2.39-1.98-1.73-4.63-1.37-7.57-1.15.56-1.01.93-1.68,1.58-2.85-1.34-.11-2.45-.23-3.57-.27-.29,0-.6.39-.89.37-.99-.07-1.97-.25-2.96-.38.58-.88,1.03-1.89,1.76-2.61.89-.88,2.02-1.52,3.62-2.69-2.47-.12-4.24-.2-6-.29-.02-.26-.05-.51-.07-.77.56-.24,1.12-.48,1.44-.62-1.01-1.16-2.03-2.32-3.04-3.48,2.25-1.97,4.32,2.45,6.22-.46.8.5,1.61,1.01,2.65,1.66.63-3.18,2.68-.82,4.21-1.38-.81-.63-1.55-1.21-2.9-2.26,2.57-.33,4.43-.56,7.05-.9-1.84-1.38-3.08-2.32-4.38-3.3-2.45.97-4.79.56-5.9-1.23,2.99-.76,5.94-1.52,9.24-2.36-2.8-2.43-5.83-4.12-6.18-8.24,3.16.92,5.92,1.73,8.69,2.53l.76-.62c-.97-2.1-1.83-4.25-2.93-6.27-.92-1.68-2.58-3.06-1.59-5.67,1.05.85,1.96,1.59,3.34,2.71-.17-2-.29-3.48-.44-5.23.3-.11.86-.3,1.58-.56-.27-.72-.53-1.45-.8-2.18.19.07.38.14.58.21.69-1.59,1.39-3.18,2.08-4.77.2-.05.39-.1.59-.14.29,1.75.58,3.49.88,5.32.46-.21,1.16-.52,2.3-1.04-.97,3.03-1.81,5.69-2.66,8.36.17.18.34.35.51.53,1.05-.47,2.08-1.01,3.17-1.38.54-.18,1.18-.06,1.78-.07-.03.6.14,1.33-.13,1.78-1.09,1.83-2.37,3.54-3.48,5.36-.39.64-.91,1.81-.65,2.12.51.59,1.53,1.03,2.35,1.03,2.57.01,5.19-.04,7.26-2.25.27,2.66-.46,4.75-2.49,6.27-1.05.79-2.2,1.47-3.26,2.26-.37.27-.71.66-.9,1.07-.45.93-.79,1.9-1.39,3.38,1.65.28,3.8.64,6.12,1.02-.08.45-.2,1.1-.39,2.12,1.09-.94,1.94-1.68,2.79-2.41.04.16.07.33.11.49,1.31-.13,2.62-.27,3.94-.4.17.13.34.26.52.38-1.09.99-2.15,2.03-3.29,2.97-1.1.9-2.29,1.7-3.27,3.11,2.99.33,5.98.67,9.22,1.03-1.12,1.51-2.34,3.15-3.57,4.8.07.17.14.34.21.5.77-.34,1.55-.65,2.3-1.03.85-.43,1.62-1.12,2.51-1.35.63-.16,1.78.03,2.01.45.3.53.16,1.66-.24,2.16-1.14,1.41-2.59,2.56-3.75,3.95-.39.48-.28,1.38-.45,2.4,1.24-.18,2.41-.49,3.59-.47.52,0,1.48.7,1.47,1.05-.05,1.22-3.91,3.85-5.17,3.72-1.3-.13-2.6-.24-4.14-.38.6.98,1.13,1.87,1.97,3.25h-8.23c2.61,3.27,5.6,4.38,9.48,3.58.9-.18,1.99.69,3.02.97,4.25,1.16,7.66-.94,11.6-3.27-.06,1.15.2,2.18-.2,2.66-1.67,2.01-3.55,3.85-5.35,5.75.3.12.59.24.89.36-.21,1.29-.05,2.84-.73,3.79-.63.88-2.16,1.1-3.29,1.62-.16-.2-.31-.4-.47-.6-.21.66-.42,1.33-.75,2.4-1.61-.25-3.33-.53-5.23-.83.61.78,1.22,1.55,1.95,2.47-4.57.78-7.05-3.9-11.69-4.05,2.33,1.99,4.18,3.64,6.11,5.19,1.46,1.17,1.52,1.1.02,2.56,3.66,2.17,7.42,1.48,11.16.44q.87,2.07-2.76,3.58c.52.22.82.38,1.14.48.36.11.74.16,1.21.26-1.15,1.43-2.18,2.72-3.66,4.57,3.32.1,5.49-.74,7.62-2.66-.13.69-.26,1.38-.45,2.41,1.12-.34,2.45-.33,3.03-.98,2.03-2.28,4.84-2.36,7.87-3.19-.82,4.09-3.62,6.38-7.11,8.93h5.11c.11.24.23.48.34.72-1.67.94-3.64,2.95-4.93,2.58-2.17-.61-3.5,1.59-5.39.45-.06.23-.13.46-.19.69,1.86.94,3.72,1.88,5.6,2.82-3.05,3.97-5.13.06-7.65-.45.08,1.01.13,1.7.24,3-2.34-1.24-4.29-2.27-6.25-3.31-.19.09-.38.18-.58.27.6.9,1.2,1.8,1.93,2.89-2.24,2.48-3.97-1.25-6.02-.54-.22,1.11-.15,2.32-2.1,1.13-2.49-1.52-5.26-2.56-7.62-3.66.54,2.48,2.5,3.84,7.64,4.53-.96.74-1.66,1.29-2.51,1.94,3.08.9,5.92,3.69,9.15.23,1.11.89,2.06,2.64,3.8.87.18-.19,1.3.54,2.28,1.5-1.76.74-3.52,1.48-5.26,2.22,1.9,2.26,7.49,1.93,9.13-.47.36-.53,1.53-.66,2.33-.66.33,0,1.03,1.02.92,1.24-.32.63-.92,1.18-1.52,1.57-.64.42-1.42.63-2.15.92.1.21.19.42.29.62,4.6-1.18,9.19-2.37,13.79-3.55.14.27.27.55.41.82-2.51,2.79-5.02,5.58-7.55,8.39.74.22,1.48.44,2.21.66-.04.29-.07.58-.11.86-1.23-.11-2.45-.21-3.72-.32-.46,2.51-1.96,1.29-3.36.49-.11.18-.22.35-.33.53.64.62,1.29,1.24,2.03,1.95-.59.65-1.28,1.41-2.14,2.35.69-.03,1.2-.06,2-.1-1.09,2.91-3.64.19-5.36,1.7-1.06.93-4.11-.39-6.4-.73.18-1.34.29-2.21.41-3.13-.91-.35-1.81-.68-2.61-.99-.5.59-.98,1.15-1.58,1.84.75.05,1.51.1,2.29.14-1.02,3.84,2.98,3.94,4.92,6.15-1.6.12-2.75.2-4.5.33,5.42,3.21,10.65,1.65,16.09,1.78-1.38.75-2.57,1.4-3.76,2.06.03.19.06.38.09.57.9-.04,1.8-.09,2.95-.14-.04.78-.08,1.54-.16,3.23,1.71-1.18,2.94-2.03,4.31-2.98.28.56.66,1.33.86,1.71,1.66.67,3.02,1.22,4.38,1.78-.86,1.22-1.72,2.44-2.59,3.66.38.03,1,.07,2.33.17-1.62.9-3.28,1.24-3.68,2.15-1.41,3.14-3.54,1.75-5.67,1.44-.81-.12-1.73.5-3.37,1.03,1.9.99,3.12,1.62,4.34,2.25-.04.14-.08.28-.12.42-1.99-.23-3.97-.46-6.37-.74.33,1.1.48,1.6.7,2.32-4.07.82-5.69-2.98-8.52-4.28-.16,1.04-.64,2.09-.32,2.76.31.66,1.85,1.51,2.14,1.3,1.82-1.32,1.79.32,2.61,1.25-3.07,1.93-6.43-2.83-9.34,1.27,1.55-.11,2.74-.19,3.92-.27q.12,1.46-3.51,3.14c1.47.27,2.98.87,4.41.73,1.42-.14,2.77-1.02,4.67-1.79-.44,1.41-.69,2.18-1.05,3.34,2.08-1.2,3.75-2.27,5.52-3.15.66-.33,1.54-.22,2.33-.3-.24.59-.51,1.16-.71,1.76-.25.74-.45,1.51-.67,2.26.29.18.57.36.86.54.86-1.12,1.71-2.26,2.6-3.36.29-.35.83-.92,1.05-.84,3.5,1.29,7.12,1.46,10.82,1.02.14.28.28.57.42.85-1.88,1.34-3.76,2.69-5.74,4.1.35.41.78.92,1.38,1.62-1.2.43-2.23.81-3.7,1.34.86.82,1.51,1.44,2.11,2.01-.12.31-.27.69-.53,1.34,1.08-.16,1.85-.27,3.14-.46-1.12,1.28-1.92,2.2-3.14,3.59-1.14-.21-2.94-.53-4.31-.78-.59.87-1.13,2.07-1.43,2.02-1.9-.36-3.86-.78-5.59-1.61-1.46-.7-3-.32-3.45,1.57.85-.06,1.64-.12,2.43-.18.54.69,1.07,1.38,1.67,2.16-.35.42-.74.89-1.21,1.45,2.02,1.35,5.47-.93,6.34,3.21-2.03.11-3.97.21-6.11.32-.01-.17-.05-.59-.11-1.26-.57.48-.99.83-1.4,1.18-1.1-1.2-2.11-2.32-3.13-3.43l-.47.41c.86,1.22,1.79,2.4,2.56,3.67.3.5.25,1.22.36,1.83-.69-.24-1.42-.41-2.07-.73-.42-.2-.74-.62-1.5-1.29.2.85.3,1.25.44,1.84-2.39.14-4.77.28-7.15.42-.05.28-.11.56-.16.83,2.34.49,4.68.97,7.38,1.53-.25.68-.53,1.44-.98,2.68,2.08-.09,3.99-.26,5.89-.23,1.24.02,2.48.34,3.73.52-.97.88-1.93,1.75-2.93,2.65-.04-.02.45.22,1.37.66-.63.29-1.14.52-1.99.92,1.17.42,1.75.64,2.34.85-.02.24-.04.48-.06.72-3.52,1.08-7.01.84-10.45-1.34-.14.32-.29.64-.43.96,2.03,1.69,4.06,3.38,6.51,5.41-3.83.47-5.6-1.82-7.89-3.84.06.77.09,1.21.15,1.93-.74-.51-1.4-.96-2.19-1.51-.19,1.93,3.37,3.01.96,5.14-2.63-1.12-2.36-5.67-6.28-5.43.18,1.56.35,3.01.53,4.45-.22.04-.44.08-.67.11-1-.88-2.05-1.72-3-2.65-.96-.95-1.83-2-3.1-3.4.3,3.3.56,6.24.77,8.59,1.26.36,2.43.34,2.93.91,1.37,1.58-.74,2.99-1.26,3.1-1.81.4-1.45,1.55-1.41,2.62.37,9.68.7,19.37,1.2,29.05.27,5.37.82,10.73,1.29,16.09.13,1.42.51,2.61,2.31,1.27.31-.23,1.01.06,1.36.1,1.7-1.68,3.42-3.43,4.98-5.28,1.72-2.04,5.11-2.67,7.13-3.62,2.15.25,3.9.79,5.55.56,2.9-.4,4.73.64,5.23,3.8.54-.63.98-1.14,1.76-2.07.29,1.47.51,2.59.73,3.71,2.21-.54,2.83-1.94,1.93-4.33-1.9-5.07-1.1-6.99,4.02-8.86-.73-13.94,1.2-28.07-1.4-42.25-1.97-.34-4.56.17-5.11-2.7-.33-1.69-.21-3.48-.68-5.11-.69-2.45,1.55-2.86,2.59-3.97,2.72-2.89,5.63-5.62,8.58-8.28,1.53-1.37,2.12-2.77,2.11-4.9-.06-12.35.03-24.71.21-37.06.03-2.15-.55-3.11-2.74-2.93-.65.05-1.32-.13-1.98-.2-4.14-.46-3.53-.58-4.32-4.66-.72-3.68,1.27-5.48,3.04-7.76,6.85-8.84,13.71-17.67,20.5-26.55,1.1-1.43,2.18-2.11,4.1-2.09,19.23.15,38.46.14,57.69.29,2.25.02,3.96-.72,5.63-2.03,6.65-5.22,13.34-10.38,19.95-15.65,1.73-1.38,3.09-1.37,4.83.02,6.98,5.59,14.02,11.12,21.11,16.57.89.68,2.25,1.03,3.39,1.04,14.68.08,29.35.05,44.03.16,1.03,0,2.42.66,3.02,1.47,7.69,10.38,15.26,20.85,22.88,31.28,1.7,2.33-.07,4.44-.49,6.56-.12.61-2.08,1.03-3.25,1.23-1.52.27-3.09.24-4.79.35v39.41c.18.13.33.33.45.31,3.88-.64,6.11,1.45,8.36,4.33,2.94,3.77,6.4,7.17,9.77,10.58,1.22,1.23,1.6,2.41,1.11,3.98-.1.31-.17.64-.21.97-.59,4.34-.6,4.33-5.11,5.05-.47.08-1.19.48-1.26.84-.52,2.61-1.24,5.24-1.28,7.87-.13,10.2-.02,20.4-.04,30.6,0,1.77.18,3.07,2.18,3.9,2.09.87,2.81,4.58,1.97,7.58-.28,1-.4,2.05-.66,3.43,1.96.46,3.69.87,5.56,1.32.21-1.35.34-2.15.5-3.14.73.17,1.39.33,2.16.51.12-.58.24-1.1.39-1.83.61.26,1.29.33,1.59.71.93,1.18,1.72,2.47,2.56,3.73.27.41.55,1.22.78,1.2,2.05-.15,2.08,1.65,2.91,2.73.39.52,1.32.59,1.94.98,1.07.69,2.09,1.46,3.27,2.31-.02.03.32-.37.67-.77.25,0,.5,0,.75,0,0,1.01.29,2.13-.06,2.99-.73,1.79-.07,2.19,1.56,2.22.51,0,1.41.35,1.46.66.38,2.04,1.86,1.91,3.38,2.04,4.51.38,9.02.82,13.52,1.36.5.06.92.84,1.38,1.28-.53.51-1.02,1.39-1.59,1.45-2.22.23-4.47.24-6.7.24-42.95.05-85.9.14-128.85.12-51.49-.03-102.98-.2-154.47-.24-22.39-.02-44.77.14-67.16.21-.9,0-1.79,0-2.62,0-1.01-1.92-.21-2.64,1.44-2.81,5.44-.54,10.87-1.06,16.31-1.58.82-.08,1.65-.14,2.24-.19-.21-.57-.56-1.16-.55-1.74,0-.22.85-.41,1.28-.66.53-.3,1-.71,1.54-.97.54-.25,1.13-.5,1.71-.53,1.47-.07,2.94-.02,5.28-.02-2.49-2.35-.79-3.3.31-4.18,3.12-2.48,4.24-2.55,6.82-.56.12-.84.22-1.58.35-2.48.52.16.95.29.91.28,1.19-1.31,2.26-2.47,3.32-3.64.09.27.18.55.27.82,1.33.34,2.68.63,3.99,1.05,1.12.36,2.27.74,3.27,1.34,2.48,1.5,4.15.6,4.24-2.49.16-5.96.21-11.93.36-17.9.33-13.42.69-26.84,1.04-40.26.03-1.07,0-2.15,0-4.03-1.67,2.65-2.96,4.71-4.25,6.77-.09-.18-.17-.35-.26-.53-.81.35-1.78.52-2.39,1.09-1.24,1.15-2.25,2.55-3.44,3.76-.33.34-1,.35-1.64.27.95-1.97,3.61-2.52,3.89-5.27-6.25,4.93-8.08,5.57-13.41,4.73.55-.67,1.04-1.27,1.68-2.05-.95-.45-1.72-.82-2.47-1.17.3-2.44,1.83-3.22,4-2.87.16-.18.26-.29.26-.29-.32-.32-.64-.63-.76-.74,1.31-.66,2.83-1.15,3.99-2.09,1.17-.94,1.98-2.33,2.64-4.05-1.44.57-3.37.75-4.22,1.81-1.65,2.06-2.49.89-3.86-1.03.21,2.41.41,4.2-2.21,3.95-.38-.04-.79.8-1.26,1.13-.92.64-1.5,2.04-3.13,1.15-.38-.21-1.43.62-2.05,1.11-1.68,1.34-3.11.48-4.66-.36,2.76-.82,5.86-1.02,6.16-5.09-1.65,1.14-3.26,2.26-4.88,3.38-.2-.25-.41-.5-.61-.75,1.53-1.64,3.05-3.27,4.58-4.91-.12-.16-.23-.32-.35-.48-.51.36-1.03.72-1.53,1.09-.87.64-1.46,2.17-2.97.83-.17-.15-1.15.43-1.64.82-2.17,1.74-4.32,2.52-6.77-.14.81-.7,1.62-1.4,2.97-2.57-1.7-1.05-3.35-1.98-4.89-3.05-.75-.52-1.37-1.26-1.95-1.99-.96-1.22-1.83-2.5-2.83-3.88.3-.24.66-.75.9-.7,2.6.54,5.22,1.05,7.76,1.81,1.69.5,5.19-.36,6.59-2.12-2.03.24-3.82.17-3.9-1.9,2.45-.65,4.67-1.8,6.77-1.61,1.44.13,3.28-.4,4.83,1.18.91.93,3.2.49,5.27.71-1.86-3.41-4.43-4.52-7.78-4.41.14-.41.28-.81.42-1.22,2.73-.18,5.47-.37,8.12-.55-.16-.15-.57-.54-1.31-1.23,1.94-.68,3.6-1.26,5.66-1.99-1.35-1.12-2.49-2.07-3.99-3.31-.59.85-1.14,1.65-1.89,2.73-.42-.78-.65-1.21-.94-1.75-.43.77-.82,1.48-1.37,2.46-.3-.53-.49-.88-.89-1.58-3.52,3.22-6.95.38-11.24-.35,1.23-1.16,2.14-2.03,3.16-3-.67-1.61-2.07-1.86-3.43-.93-3.54,2.4-5.05,2.26-7.59-1.05,1.66-.41,3.34-.82,5.02-1.23.09-.3.18-.59.27-.89-3.8-1.35-5.93-3.8-5.61-8.42,1.6.5,3.16.97,4.71,1.47.69.22,1.35.55,2.04.76,2.7.81,4.51-.33,5.34-2.29,2.86.82,5.41,1.72,8.03,2.2.92.17,2.04-.73,2.96-1.56-.97.13-1.93.25-3.22.42.44-.65.68-1,1.03-1.53-.86-.29-1.6-.53-2.51-.84.26-1.32.51-2.65.81-4.18,2.7-.07,4.89,3.72,8.02,1.07-1.81-.28-3.47-.55-5.13-.81-.02-.27-.04-.54-.06-.81,2.69-.57,5.39-1.14,8.08-1.71-.05-.26-.11-.52-.16-.78-1.08.08-2.17.15-3.25.23-.04-.23-.09-.45-.13-.68.64-.46,1.28-.91,2.2-1.57-1.44-1.62-2.09-.22-3.03.49-1,.75-2.23,1.18-3.61,1.87.47-1.4.8-2.38,1.13-3.37-.23-.07-.45-.15-.68-.22-1.46,2.88-4.41,3.26-7.58,4.75.5-1.38.74-2.06,1.16-3.22-2.71,1.15-5.24,3.92-8.03.39,1.8-.46,3.41-.88,5.27-1.36-2.47-2.63-4.67-3.23-8.27-2.53-.79-.89-1.6-1.81-2.71-3.06,1.76-.36,3.17-.64,4.56-.92-.96-1.2-2.23-2.36-2.92-3.79-.69-1.41-.8-3.11-1.2-4.78.83-.04,1.07-.12,1.13-.05,2.36,2.89,5.62,2.89,8.92,2.9.65,0,1.3.6,2.09.99-.05-.47-.1-.89-.15-1.35,1.09-.13,2.17-.25,3.17-.37-1.84-1.39-3.59-2.71-5.33-4.03.12-.25.24-.5.36-.76,2.77.2,5.54,2.16,8.11.72,1.17.65,2.31,1.78,3.49,1.81,1.17.04,2.33-1.14,3.57-1.57,2.5-.86,5.07-1.55,7.59-2.37.78-.26,1.5-.7,2.25-1.06-.07-.19-.13-.39-.2-.58-.55.1-1.1.19-1.88.33.14-1.46.26-2.79.39-4.12-.19-.05-.38-.1-.57-.14-.22.28-.57.53-.64.84-.56,2.54-1.91,3.99-4.71,4.02-.66,0-1.31,1.09-2.12,1.81-.47-.1-1.22-.27-2.26-.5.84-1.13,1.61-2.18,2.26-3.06-1.7,0-3.36.3-4.84-.09-1.38-.37-2.57-1.47-3.95-2.3-1.74,1.03-5.56-.18-6.35-2.28.99-.05,1.95-.1,3.33-.18-2.36-3.11-7.47-2.87-7.54-7.78,1.11.29,1.93.51,2.61.69-1.58-1.42-3.18-2.85-4.78-4.29.16-.34.33-.68.49-1.01,5.74,1.38,11.48,2.76,17.08,4.1-1.2-1.52-3.96-2.75-2.55-5.98,2.98,2.64,6.43,3.79,10.52,3.81-1-1.26-1.67-2.11-2.35-2.95.15-.23.3-.46.45-.7,2.43,1.32,3.58.15,4.33-2.14-1.62-.62-3.26-1.26-5.13-1.98.51-1.01,1.07-2.12,1.73-3.41-1.79,1.22-3.36,2.29-5.22,3.56.06-.92.09-1.28.13-1.92-.74.45-1.28.78-2.15,1.32-.23-.61-.5-1.33-.77-2.04l-.46,1.11c-1.89.35-3.77.7-6.15,1.14.5-1.08.75-1.62.89-1.93-1.89-1.77-3.67-3.43-5.58-5.23,1.89-1.17,3.82,2.2,5.05-1.04-4.66-.75-3.68-5.47-5.9-8.14.18-.23.36-.45.54-.68,2.67,1.42,5.34,2.84,8.02,4.26.3-1.1.6-2.21.93-3.44,2.37.78,3.68,3.62,6.99,2.84-1.06-1.31-1.92-2.37-3.12-3.85,1.07-.3,2.15-.59,3.31-.91-.02-.07-.11-.5-.23-1.09,3.53.45,7.08,1.55,10.02-1.61.22.12.64.33.68.35,1.21-.93,2.21-1.71,3.45-2.67,0,.06-.06-.39-.14-.99h3.34c.03-.18.07-.36.1-.54-.68-.16-1.35-.33-1.64-.4-.26-.99-.45-1.73-.64-2.48.95-.09,1.9-.19,3.05-.3-.32-.63-.6-1.01-.72-1.44-.12-.44-.07-.93-.09-1.39-.25-.07-.49-.13-.74-.2-.48,1.13-.97,2.25-1.45,3.38ZM249.66,257.82c-2.53-.01-5.08-.14-7.6.04-.69.05-1.31,1.01-1.96,1.55.7.4,1.38,1.03,2.11,1.12.71.08,1.49-.4,2.25-.64.16.39.32.79.68,1.68.29-1.1.45-1.68.6-2.24h2.18c-.04.45-.07.84-.09,1.07,1.44,0,2.93-.32,4.2.08,1.77.56,2.65.57,2.41-1.51-1.68-.4-3.24-.78-4.8-1.15.42-2.02-.82-2.55-2.43-2.55-1.85,0-3.71.08-5.56.25-.54.05-1.05.51-1.66.82,3.5.53,6.59,1,9.67,1.47ZM130.4,138.16c-2.8-.16-5.42,2.47-8.43.43.06.5.11.87.17,1.37-.63-.22-1.21-.41-1.91-.65-.45,1.18-.85,2.23-1.33,3.48h10.31c.43-1.7.81-3.17,1.18-4.64.47.47.92,1.31,1.42,1.35,4.32.34,8.65.56,12.98.77,1.29.06,2.59,0,3.58,0v15.11h-7.5v-12.99c-.19,0-.37,0-.56,0v13.21h-5.91c0,.21,0,.41,0,.62h13.89v13.13h-14.95v-28.57h-3.09c0,5.14.11,10.18-.03,15.22-.14,4.83.19,9.71-.2,14.53-.22,0-.45-.02-.67-.03.15-.92.3-1.83.46-2.81h-10.53v8.88h44.93c-.06-1.35-.1-2.27-.17-3.8-4.63.47-8.92,1.15-13.22,1.29-6.1.2-12.22.11-18.33-.05-2.99-.08-5.97-.62-8.96-.89-1.12-.1-2.26-.02-3.39-.02,0-.2,0-.4,0-.6h33.02c.16-.19.32-.38.48-.57-.63-.63-1.27-1.25-2.08-2.05v-31.03c-1.9,0-3.71-.02-5.52,0-4.14.06-8.27.22-12.41.18-1.08,0-2.16-.59-3.24-.9ZM171.8,175.71c-.72,2.3-.11,2.98,2.01,2.96,22.46-.16,44.93-.2,67.4-.37,7.18-.05,14.36-.41,21.55-.61.16,0,.32.17.48.23,1.14.42,2.29.83,3.62,1.32v-42.85h-3.46v37.42c-.2,0-.39.01-.59.02-.1-1.4-.2-2.81-.31-4.44h-13.52v-36.95c.23,0,.45-.02.68-.02.1,1.23.2,2.46.29,3.5h12.77c.11-.24.22-.49.33-.73-3.16.35-5.06-.71-5.34-3.82-.02-.26-1.06-.6-1.62-.6-2.64-.02-5.28.11-7.92.1-10.58-.02-21.16-.07-31.74-.1-7.93-.02-15.86-.02-23.79-.02-5.62,0-11.24,0-16.44,0-.31,1.95-.56,3.57-.86,5.45,2.59-1.04,6.07,2.02,8.72-1.5.1-.13.47-.08.71-.08,6.52,0,13.04,0,19.48,0v19.93h-7.86v-9.18h7.18c-.02-.25-.03-.5-.05-.75h-7.38v-8.39c-.25,0-.5,0-.75.01v8.17c-2.55.13-4.73.24-6.9.34.01.26.03.53.04.79h6.74v9.12h-7.92v-19.22c-1.16.11-2.03.2-3.09.3v9.88c-.09-1.79-.99-2.31-2.66-2.14-1.4.14-2.81.12-4.22.1q-5.61-.07-5.33,5.3c0,.13.19.24.28.35h11.69c.01.21.02.42.03.63h-12.15v5.64h11.87c.14-1.11.27-2.1.32-2.53v16.61h-12.46v5.59h10.98c0,.18,0,.35,0,.53h-10.81ZM101.86,192.14c-.56,3.54-.53,3.59,2.69,3.59,21.06-.02,42.12-.05,63.17-.06,25.53-.01,51.06-.01,76.59-.02,24.79,0,49.57,0,74.36,0,3.06,0,3.18-.19,2.57-3.51H101.86ZM160.56,128.48c.99-.9,1.39-1.3,1.83-1.66,17.17-14.07,34.38-28.09,51.48-42.24,1.89-1.56,3-1.38,4.77.06,17.39,14.18,34.85,28.29,52.3,42.4.54.43,1.2.72,1.8,1.08-.18.24-.36.48-.54.72h-10.79c-.04.94-.08,1.7-.11,2.54h16.02c1.19-3.02-.47-4.6-2.46-6.19-9.39-7.48-18.73-15.02-28.07-22.56-9.09-7.33-18.2-14.65-27.23-22.06-1.91-1.56-3.45-2.01-5.58-.29-3.53,2.86-7.4,5.33-10.92,8.2-9.31,7.58-18.52,15.29-27.76,22.97-6.43,5.34-12.87,10.68-19.23,16.12-.58.5-.74,1.67-.77,2.55-.01.37.8,1.1,1.25,1.11,4.95.08,9.91.05,14.83.05.29-2.81.29-2.8-2.12-2.79-2.63.01-5.26,0-8.69,0ZM174.78,130.12c3.88,0,7.34,0,10.79,0,14.08-.03,28.17-.06,42.25-.08,9.45-.02,18.89-.06,28.34-.03,1.33,0,2.62-.59,1.6-1.66-1.66-1.74-3.16-4-6.23-3.92-7.29.2-14.58.22-21.87.26-16.07.09-32.15.11-48.22.29-.98.01-2,1.12-2.91,1.83-1.1.86-2.11,1.85-3.75,3.31ZM259.01,246.2c.02.36.04.73.06,1.09h40.27c-.18-.88-.3-1.46-.37-1.8h-6.04c1.63-.65,3.3-.85,4.98-.84,2.05.02,1.99-1.14,1.64-2.44,2.45.66,2.52-1.76,4.13-2.89h-11.93v5.97c-.3,0-.6-.01-.91-.02v-31.83l-1.08-.31c-.73,1.16-2,2.27-2.09,3.48-.28,3.71-.1,7.46-.1,11.22h-8.57v-9.59h6.53l-.02-.21h-7.09v10.1h-8.52c0,.27.01.54.02.81h17.48v16.1h-18.63c0-6.55-.01-12.93.01-19.3,0-1.22,0-2.26-1.7-1.61,0,0-.1-.25-.21-.52.6-.2,1.17-.39,1.65-.55v-9.16c-2.81,5.19-3.03,6.57-2.26,7.71-.26,8.52-.5,16.09-.73,23.65-.33,0-.66-.01-.99-.02v-5.77h-7.92c2.42.33,3.3,2.34,2.07,5.04q4.77.51,4.72,1.41c-1.53.11-2.97.2-4.42.3ZM181.63,123.6h70.82c-2.62-2.04-4.64-3.67-6.73-5.21-.35-.26-.95-.24-1.43-.24-17.97.05-35.93.14-53.9.11-2.18,0-3.8.82-5.32,2.13-1.1.95-2.13,1.98-3.44,3.22ZM149.43,217.05c.88.16,1.41.25,1.45.26-.52.73-1.43,1.43-1.43,2.13,0,1.87-1.17,3.99.41,5.42-.37.95-.73,1.9-1.2,3.13h-15.87v.46h16.26v16.55h-17.46c0-8.77.13-17.37-.08-25.97-.07-2.74,1.29-6.11-2.34-8.16v34.82c-1.47,0-2.75-.08-4.01.02-1.26.1-3.04-.61-3.37,1.65h32.24c.15-.96.27-1.68.37-2.36.37-.1.6-.21.84-.22,2.4-.05,4.8-.1,7.2-.11,3.33,0,5.12-1.51,5.93-5.23h-14.49q-.97,5.5-1.97,5.56v-34.58c-.22-.01-.45-.02-.67-.03-.07.98-.15,1.97-.26,3.42-.58-.83-.88-1.26-1.18-1.69l-.65.51c.75.79,1.5,1.59,2.36,2.5-.61.56-1.18,1.1-2.09,1.93ZM283.25,155.54v-13.05c-.16,0-.33,0-.49,0v13.29h-5.97c0,.21-.01.41-.02.62.68.06,1.36.16,2.05.18,3.15.06,6.3.04,9.44.19.62.03,1.73.69,1.74,1.09.13,3.95.08,7.91.08,11.91h-14.42c0-2.12.03-4.18,0-6.24-.1-6.79-.19-13.57-.39-20.36-.02-.74-.76-1.46-1.17-2.19-.24.09-.48.18-.73.27v31.32c6.55,0,13.17,0,19.79,0,1.1,0,1.82-.24,1.28-1.61-.44-1.11-1.03-2.27-1.05-3.41-.12-5.72-.09-11.44-.1-17.16,0-3.62,0-7.24,0-10.67-1.44-.41-2.61-.74-3.53-.99-4.9.22-9.76.44-14.63.65l.02.84h14.84v15.31h-6.73ZM189.12,117.23h55.42c-2.02-1.61-3.57-2.95-5.23-4.13-.61-.44-1.49-.71-2.24-.71-13.24-.05-26.48-.07-39.73-.02-1.01,0-2.17.3-3.01.85-1.71,1.11-3.25,2.47-5.22,4.01ZM250.29,242.56v-34.27c-2.06-.09-3.88-.17-5.96-.27v34.54h5.96ZM313.24,208.04c-1.76,0-3.26.13-4.72-.04-1.55-.18-1.87.57-1.86,1.85.03,10.2.02,20.39.1,30.59,0,.62.63,1.71,1.06,1.76,1.75.2,3.54.08,5.41.08v-34.25ZM114.81,242.23v-34.21h-6.11v34.21h6.11ZM171.92,207.94v34.25h5.96v-34.25h-5.96ZM197.2,110.66l.21.6h39.59c-2.19-1.84-3.77-3.27-5.48-4.54-.75-.56-1.76-1.09-2.65-1.11-7.02-.09-14.06.21-21.07-.13-4.76-.23-7.43,2.76-10.6,5.17ZM167.1,137.17v41.66h3.2v-42.49c-.96.25-1.76.46-3.2.83ZM223.88,211.48c-.34,1.66,1.91,3.85-.08,5.9.04,13.98.12,27.96.07,41.94,0,2.43,1.06,2.34,2.73,1.82v-47.97c-1.1-.68-1.88-1.17-2.71-1.69ZM250.4,149.89v5.66h12.09v-12.18c-2.59,0-4.98,0-7.37,0-5.33,0-5.38.06-4.54,5.87h9.85c0,.22,0,.44,0,.66h-10.03ZM106.39,131.29h45.69v-2.9h-45.4c-.1.96-.18,1.76-.29,2.9ZM117.54,176.86v-39.31c-2.74,1.74-3.15,4.08-3.16,6.57-.05,10.26-.09,20.52-.12,30.78,0,.63.13,1.26.21,1.95h3.07ZM193.62,261.58c1.32-.16,2.16-.27,2.68-.33v-47.62c-.18-.02-.37-.04-.55-.06-.17.55-.34,1.09-.51,1.64-.16-.02-.31-.04-.47-.06.1-1.36.2-2.72.29-4.08-.52.74-1.09,1.67-1.12,2.61-.18,5.91-.29,11.82-.32,17.74-.05,9.91-.01,19.82-.01,30.16ZM236.97,263.71c-.91,0-1.64,0-2.37,0-15.08-.02-30.15-.03-45.23-.05q-2.34,0-3.34,2.32h50.79c.06-.83.1-1.45.15-2.27ZM185.7,270.49c8.5-.14,16.98-.6,25.43-.33,8.8.28,17.55.28,26.36-.89-.68-.76-1.42-1.14-2.16-1.15-6.7-.07-13.39-.1-20.09-.1-9.02,0-18.03.03-27.05.06-1.21,0-2.58-.18-2.5,2.41ZM152.87,156.38v9.9h11.01v-10.05c-3.31,0-6.36,0-9.41,0-.48,0-.96.08-1.61.14ZM147.19,254.77c.05.39.1.79.15,1.18-1.71.18-3.43.37-5.19.56,1.04,2.08,5.09,2.71,7.7,1.27-.35-.68-.7-1.36-1.15-2.26h10.7c1.7,2.32,2.75-1.78,4.53-1.58.28.03.67-.87,1.01-1.35-.16-.17-.33-.34-.49-.51-1.28.62-2.51,1.4-3.85,1.8-1.39.41-2.88.46-4.33.66-.05-.21-.1-.42-.16-.63,2.9-.86,5.79-1.73,8.69-2.59-.03-.21-.06-.42-.09-.63h-12.61c1.09.72,1.51,1,2.52,1.67-2.5-.14-4.24-.24-5.98-.34-.02-.15-.05-.3-.07-.44,1.07-.22,2.13-.44,3.2-.66-.06-.24-.11-.49-.17-.73-2.66.44-5.32.88-7.97,1.31.02.28.05.57.07.85,2.81.37,5.62.77,8.44,1.1.94.11,1.9.02,3.44.02-.77.57-1.16,1.11-1.52,1.08-3.75-.27-7.51-.57-11.25-.98-2.75-.3-5.5.28-8.29-.6-1.38-.44-3.18.44-4.79.72.03.36.06.73.1,1.09h17.37ZM129.61,166.49v-10.23c-2.98,0-5.79-.09-8.59.07-.65.04-1.74.91-1.78,1.45-.18,2.87-.08,5.75-.08,8.72h10.45ZM229.1,104.74c-2.39-1.9-4.25-4.51-6.51-4.92-3.87-.71-8.09-.53-11.97.24-2.17.43-3.96,2.8-6.41,4.68h24.9ZM299.02,251.47c0-.16.01-.33.02-.49-.18-.1-.36-.29-.55-.29-7.27-.09-14.54-.2-21.81-.18-.87,0-2.17.54-2.54,1.23-.98,1.81-2.48,1.83-4.13,1.84-.69,0-1.39.19-2.49.35,1.56.55,2.53.89,3.5,1.23-1.77.47-3.92-.86-4.62,2.25,1.36-.17,2.64-.65,3.75-.41,3.06.68,2.78-.77,1.7-3.09,6.04,2.12,12.05.5,18.12,1.5-.69.55-1.09.87-1.58,1.27,2.18.88,5.33-.58,7.34-3.29-.93-.49-1.83-.97-2.73-1.45,0-.15,0-.31,0-.46h6.01ZM280.36,131.38h30.3c.1-.63.21-1.02.22-1.42.01-.38-.07-.76-.12-1.18h-30.4v2.59ZM260.36,126.82c.09-.21.17-.43.26-.64-2.66-3.41-40.04-32.8-42.96-33.66,1.28,1.13,2.36,2.15,3.49,3.09,8.26,6.87,16.51,13.74,24.8,20.58,3.76,3.11,7.55,6.18,11.4,9.18.86.67,2.01.98,3.02,1.46ZM294.59,156.44v10.12h7.1v-10.12h-7.1ZM172,162.09c.63.11,1.47.35,2.32.37,1.98.05,3.95,0,5.93-.01,3.44,0,3.49,0,3.53-3.43,0-.87-.42-2.49-.7-2.51-3.71-.17-7.43-.11-11.08-.11v5.7ZM262.57,156.27c-3.37,0-6.43-.05-9.49.03-.92.03-2.54.29-2.63.71-.32,1.49-.16,3.09-.08,4.64.01.19.65.5,1,.51,3.7.04,7.4.02,11.19.02v-5.92ZM153.8,232.04c2.92,0,5.54.07,8.15-.03,1.39-.06,3.01.85,4.11-.93.59-.96,1.5-1.7,2.21-2.6.16-.21.06-.62.08-1.04-.43.37-.76.65-1.01.87-.36-.54-.66-1.37-.97-1.38-4.16-.09-8.31-.06-12.58-.06v5.16ZM171.66,168.88c3.77,0,7.39.14,10.97-.16.5-.04.99-2.21,1.18-3.44.15-1.01.08-2.18-1.59-2.15-3.45.07-6.91.02-10.55.02v5.72ZM262.47,168.78v-5.45h-12.17c0,1.45-.18,2.72.08,3.89.14.61,1.04,1.47,1.62,1.49,3.44.14,6.88.07,10.47.07ZM153.72,232.93v5.17c4.8,0,9.47.01,14.14-.04.18,0,.36-.6.42-.7-1.29-.08-2.48-.15-3.66-.22l-.08-.71c.62-.21,1.25-.43,1.92-.66-.07-1.66-.64-2.84-2.57-2.84-3.33,0-6.67,0-10.16,0ZM262.48,142.43v-5.05h-12.15v5.05h12.15ZM254.69,254.42c-1.58-.14-2.92-.26-4.26-.38.92-.48,1.89-.37,2.68-.69.68-.28,1.15-1.06,1.71-1.62-.63-.5-1.25-1.4-1.89-1.42-3.68-.09-7.37.1-11.06.06-1.47-.01-1.92.59-1.81,1.93.06.72.01,1.44.01,2.68,4.47-1.24,8.6-.26,12.85.73-.03.17-.12.73-.22,1.29h1.87c.04-.91.08-1.72.12-2.58ZM228.36,238.18h12.59c-.72-1.52-1.25-2.63-1.67-3.51.25-.19.74-.57,1.24-.95-.61-.28-1.21-.67-1.85-.8-.61-.13-1.28,0-1.92,0-2.78,0-5.56,0-8.39,0v5.25ZM183.73,142.41c0-1.49.1-2.96-.06-4.4-.05-.42-.82-1.07-1.27-1.08-2.63-.02-5.27.03-7.9.25-.65.05-1.52.69-1.79,1.28-.53,1.15-.72,2.46-1.1,3.94h12.12ZM119.37,149.33h10.15v-5.55c-3.02,0-5.82-.11-8.59.08-.66.04-1.66,1-1.8,1.68-.22,1.14.12,2.39.24,3.8ZM228.32,244.67c2.62,0,5,.01,7.38,0,2.29-.01,4.76-2.96,4.43-5.35h-11.81v5.35ZM165.64,224.82c.51-3.63-3.06-1.74-4.41-3.45,2.21-.12,3.96-.21,5.71-.3-.02-.21-.05-.43-.07-.64h-12.85c-.1,1.5-.2,3.09-.31,4.84h14.38c-.12-.91-.2-1.44-.31-2.27-.75.64-1.26,1.07-2.13,1.82ZM303.71,232.83h-11.49v5.06h11.65c-.79-1.13-1.24-1.79-1.71-2.46.42-.7.84-1.41,1.55-2.6ZM152.95,155.18h11.07v-4.87h-11.07v4.87ZM118.06,232.02h10.12c-.1-1.98-.19-3.8-.27-5.49h-9.85v5.49ZM119.32,150.21c-.07,1.38-.26,2.69-.13,3.97.05.53.75,1.41,1.18,1.43,3.1.12,6.21.07,9.29.07v-5.46h-10.34ZM168.68,256.43c.03.21.06.41.09.62h4.26c.08-.61.15-1.18.23-1.82h4.94c.04-.19.07-.38.11-.57l-6.57-1.46.2-.81c1.76.36,3.57.58,5.29,1.09,3.36,1.01,4.82.14,4.3-2.87-4.25-.08-8.51-.95-13,.73.2,1.11.49,2.78.79,4.45.24-.02.48-.03.72-.05l-1.37.69ZM128.25,238.17c-.1-1.97-.18-3.63-.26-5.2h-9.93v5.2h10.19ZM163.93,144.42h-11v4.67h11v-4.67ZM228.52,226.75v5.29c3.52,0,6.9.05,10.27-.02,1.83-.04,1.98-.4,1.43-1.92-.83.38-1.7.78-2.56,1.18-.17-.21-.33-.41-.5-.62.88-1.3,1.76-2.59,2.59-3.82-1.59.33-3.38.71-5.17,1.08-.03-.18-.07-.37-.1-.55.68-.07,1.35-.15,2.03-.22-.01-.13-.03-.27-.04-.4h-7.96ZM292.2,231.83h9.18v-2.64c.71-.08,1.34-.16,2.13-.25-.44-.79-.78-1.42-1.3-2.36h-10.01v5.24ZM127.67,220.01h-9.55v5.23h9.55v-5.23ZM163.98,172.55v-4.89h-11.52c.75,1.84,1.37,3.37,1.99,4.89h9.53ZM299.4,224.14c0-.19,0-.39,0-.58,1.29-.38,2.58-.77,4.32-1.29-.97-.18-1.49-.28-2.01-.37.14-.49.27-.97.59-2.1-.95,1.04-1.43,1.57-2.23,2.44.19-1.04.3-1.62.39-2.09h-8.18v4.97h10.88c0-.32-.02-.65-.03-.97h-3.73ZM128.07,239.34h-10.05c.15,3.85,4.5,6.01,10.05,5.09v-5.09ZM182.08,239.29c-.11,2.66.32,2.99,3.29,2.93-.55,2.14,1.4,2.81,6.69,2.23v-5.17h-9.98ZM192.08,226.77h-7.24c-.76,1.92-1.4,3.51-2.07,5.21h9.31v-5.21ZM183.04,237.54c.07.19.14.38.21.57h8.84v-5.31c-3.61.55-7.19-.41-11.16,1.24,2.26.25,3.84.42,5.49.6-1.2,1.03-2.29,1.96-3.38,2.88ZM234.76,250.06c.77.54,1.31.91,1.73,1.21-.38-1.57-.76-3.17-1.26-5.25h-6.83v5.49c4.63.46,6.13.18,6.37-1.44ZM117.31,259.25c.05-1.04.07-1.95.15-2.86.1-1.2-1.83-2.75-2.67-1.97-1.33,1.23-2.29.06-3.4.09-1.15.02-2.29.61-3.42,1-.42.15-.78.45-1.05.61-.41-.66-.73-1.18-1.04-1.69-.56,1.21-.65,2.19-.54,3.15.07.65.39,1.81.65,1.82,2.4.14,4.81.08,7.21.08.04-.31.07-.62.11-.92-2.32-.39-4.64-.77-7.79-1.29,2.18-.51,4.81-1.57,5.11-1.11,1.41,2.13,2.81.43,4.16.49.24,0,.48.19.9.36-.82.52-1.38.88-2.39,1.52,1.71.31,2.9.52,4.01.73ZM294.73,149.88v5.51h7.01v-5.51h-7.01ZM272.33,174.73v.84c9.42,0,18.84.02,28.26-.05.43,0,.86-.72,1.28-1.1-.52-.36-1.01-.97-1.55-1.02-3.1-.31-6.1.47-9.15.84-4.96.6-10.04.21-15.07.26-1.26.01-2.51.15-3.77.23ZM303.71,250.26c-.03.26-.07.52-.1.78,1.02.08,2.03.16,3.39.27-1.6.51-2.87.91-4.14,1.31l.07.62h4.86c0,.16-.01.32-.02.47-1.44.18-2.87.36-4.31.54.02.23.03.47.05.7.73-.06,1.49-.26,2.18-.13.81.15,1.77.39,2.31.94,1.52,1.53,2.93,1.62,4.79-.1-1.31-.52-2.54-1.01-4.18-1.66,2.32-1.28,4.22-2.34,6.76-3.74h-11.64ZM301.78,143.84c-.59-.06-.91-.11-1.23-.12-1.4-.01-2.81.06-4.21-.03-1.47-.09-1.79.64-1.83,1.94-.12,3.65-.03,3.8,3.58,3.59,1.21-.07,2.41-.22,3.68-.34v-5.05ZM104.86,249.9c.42,1.59.43,2.98.88,3.14,2.66.95,5.32,1.03,7.61-1.09-.33.62-.66,1.24-1.07,2.01,1.91-.19,3.56-.36,5.19-.52.21-2.92-.23-3.36-2.92-2.99-1.05.15-2.11.57-3.13.48-1.97-.17-3.93-.6-6.57-1.04ZM143.56,251.08l-.31-.49h-21.32c-.04.22-.08.44-.12.67,1.28.41,2.56,1.17,3.84,1.17,5.17-.01,10.34-.22,15.5-.45.81-.04,1.61-.58,2.41-.89ZM239.28,246.81c.15.23.29.46.44.69h15.78c.03-.32.05-.63.08-.95-4.23-2.41-9-.86-13.5-1.09-.9-.05-1.86.87-2.79,1.35ZM317.45,247.54l.56-.79c-.77-.49-1.53-1.38-2.32-1.42-3.62-.15-7.25-.15-10.87.01-.77.03-1.51.94-2.26,1.44.14.25.28.5.42.75h14.49ZM301.39,138.37h-6.61v4.6c8.69.24,7.2.21,6.61-4.6ZM301.71,167.67h-7.51c.49,1.69.91,3.17,1.37,4.75h6.14v-4.75ZM182.74,247.27c.14-.19.28-.38.42-.56-.77-.48-1.52-1.33-2.31-1.37-3.56-.15-7.13-.15-10.69,0-.96.04-1.89.76-2.83,1.17l.21.77h15.2ZM104.4,246.45c.07.34.15.68.22,1.02h13.53c.13-.21.27-.42.4-.62-.61-.52-1.27-1.54-1.82-1.49-4.1.39-8.52-1.31-12.32,1.09ZM273.12,259.9c.24.15.49.3.73.46.57-.53,1.13-1.05,1.56-1.45.59.57,1.2,1.61,1.69,1.56,2.58-.27,5.12-.83,7.68-1.28,0-.1.02-.2.03-.3l-5.47-.85c.03-.24.05-.47.08-.71h8.5c-3.47-2.21-9.81-1.49-13.91,1.19-.42.27-.6.91-.89,1.38ZM192.21,220.62c-.67-.15-1.31-.4-1.95-.42-.7-.03-1.52-.04-2.09.29-.76.43-1.42,1.12-1.97,1.82-.48.61-.76,1.39-1.13,2.1.73.33,1.47.95,2.2.94,4.84-.01,4.84-.05,4.94-4.72ZM292.4,214.54v4.19h10c-1.29-.74-2.8-1.15-3.58-2.14-1.7-2.14-3.51-3.25-6.42-2.04ZM311.78,258.44c0,.3-.02.61-.02.91-1.44-.69-2.83-1.7-4.34-1.96-1.44-.26-3.02.27-4.54.45,0,.32,0,.64,0,.96,2.3,2.62,5.61,1.04,8.39,1.55.59.11,1.4-1.03,2.58-1.97h2.7c.05-.99.1-1.83.17-3.05-1.35.36-2.31.62-3.28.88.04.19.09.39.13.58h2.14c-1.57.66-2.76,1.16-3.94,1.65ZM260.59,236.93c-1.3.16-2.24.28-3.17.39.02.2.04.4.06.61h6.81v-5.15c-2.17.12-4.15.23-6.1.33.86,1.37,1.59,2.53,2.4,3.82ZM153.96,214.94v3.48c3.88,1.01,6.81-.6,7-3.9-2.22-.19-4.45-.38-7.19-.61.87.94,1.28,1.38,1.68,1.83-.06.06-.12.12-.18.18-.35-.26-.7-.52-1.31-.97ZM273.26,252.1c-.05-.29-.11-.57-.16-.86-3.25-1.23-12.73-1.01-14.62.51h4.19c-.33.64-.54,1.05-.95,1.84,4.05-.53,7.79-1.01,11.54-1.5ZM80.28,183.16c-.55-.19-1.18-.26-1.63-.59-.52-.38-1.23-.96-1.27-1.48-.15-2.35-3.71-4.36-5.96-3.2,1.86,3.53,4.13,6.37,8.85,5.27ZM232.45,225.55c.69-5.49.59-5.62-3.99-5.17.69.42,1.14.7,1.59.97-.25,0-.5-.01-.74-.02-.38,1.37-.76,2.74-1.17,4.21h4.31ZM258.79,230.69c.01.28.02.55.04.83,1.81.17,3.63.35,5.54.53v-5.21c-2.65-.31-3.74.67-3.72,3.29-.62.19-1.23.37-1.85.56ZM187.62,245.98c-.26.37-.53.74-.79,1.1.64.41,1.28.81,1.66,1.05-.28.38-1.2,1.16-1.06,1.54.28.75,1.16,1.27,2.04,2.13.44-1.16.68-1.8.92-2.44.39.33.79.65,1.4,1.15.13-1.73.23-3.13.33-4.55h-4.5ZM158,141.7c.06-.21.17-.59.2-.71-1.23-.45-2.42-1.02-3.67-1.28-.45-.09-1.37.49-1.51.94-.22.69.05,1.54.12,2.33h8.64c.03-.17.05-.34.08-.52-1.27-.25-2.54-.5-3.86-.77ZM170.31,258.24c-.04.23-.08.47-.12.7.28.13.55.33.84.36,3.2.37,6.4.75,9.61,1.02.36.03.77-.6,1.16-.92-.49-.39-.98-1.1-1.48-1.11-3.33-.1-6.67-.05-10.01-.05ZM164.28,246.22c-.12-.19-.24-.37-.35-.56-2.45-.11-4.89-.28-7.34-.27-.52,0-1.04.67-1.56,1.04.46.35.91.99,1.38,1.01,2.14.08,4.29.06,6.42-.1.51-.04.97-.72,1.46-1.11ZM71.86,148.94c.56,1.24.84,2.59,1.64,3.46.82.89,2.1,1.54,3.29,1.84.71.18,1.63-.53,2.25-.76-1.25-.89-2.29-1.35-2.91-2.13-1.19-1.51-2.58-2.34-4.27-2.4ZM212.37,98.19c.03.15.07.3.1.45h8.61c.06-.17.12-.35.19-.52-1.66-.93-3.31-1.86-4.72-2.65-.42.94-.74,1.65-1.21,2.71-.24-.82-.34-1.16-.48-1.61-.93.61-1.71,1.12-2.48,1.63ZM250.03,265.24c-.03-.21-.06-.42-.09-.63-1.28-.35-2.56-1-3.84-.99-1.47.02-2.96.57-4.4,1-.58.17-1.07.64-1.6.97.66.29,1.37.89,1.97.81,1.73-.24,3.4-.83,5.12-1.14.92-.16,1.89-.03,2.84-.03ZM127.63,214.14c-.22-.05-.45-.09-.67-.14-.3,1.02-.6,2.05-.94,3.2-1.77.21-3.92.47-6.08.73.02.21.04.42.06.63h7.62v-4.42ZM113.35,261.27h-7.9c-.02.2-.05.39-.07.59,1.43.37,2.85.75,4.28,1.12-.05.2-.09.4-.14.6h-4.16c3.87,2.12,5.63-1.49,8-2.31ZM52.96,163.12c3.15.28,5.52-3.17,4.7-7.33-1.62,2.53-3.18,4.96-4.7,7.33ZM62.16,213.06c-3.26-2.93-1.06-7.02-2.25-10.37-.35,1.6-.4,3.17-.71,4.69-.52,2.57-.07,4.62,2.96,5.68ZM59.55,218.43c-.18,0-.37,0-.55,0v17.99c.18,0,.37,0,.55,0v-17.99ZM316.78,251.02c-.17-.11-.35-.23-.52-.34l-4.5,2.73c0,.27,0,.54.01.81,1.05.14,2.1.4,3.15.38.61,0,1.2-.45,1.81-.7-.39-.51-.77-1.03-1.11-1.47.29-.35.73-.88,1.17-1.41ZM174.68,263.01c.06-.3.13-.6.19-.91-1.77-.09-3.53-.17-5.47-.27-.09.96-.17,1.74-.25,2.59,2-.51,3.77-.96,5.54-1.42ZM260.98,220.46c1.19.68,2.04,1.17,2.9,1.66-.08.19-.17.38-.25.57-.58-.07-1.16-.15-1.74-.22q.48,2.73,2.46,2.29.14-4.57-3.36-4.29ZM271.39,155.37l.47.03v-11.21c-.16,0-.31,0-.47,0v11.19ZM74.91,40.84c-1.67.56-3.02.95-4.31,1.47-.42.17-.69.67-1.04,1.02.43.31.86.89,1.29.89,1.92-.02,3.62-.53,4.06-3.38ZM266.95,254.34h-7.17c1.78,1.94,4.72,2,7.17,0ZM70.97,81.46c-1.3-1.75-2.44-3.28-3.74-5.02-.37,4.09.76,5.68,3.74,5.02ZM60.38,251.89c-2.38,1.38-2.37,2.6-.9,3.99.08.07-.31.73-.56,1.06-1.01,1.29-.9,2.71.21,3.61.39-2.7.79-5.47,1.25-8.66ZM72.58,140.43c.29-.26.58-.53.88-.79-1.34-1.44-2.69-2.88-4.03-4.31-.3.28-.6.56-.89.85,1.35,1.42,2.7,2.84,4.05,4.26ZM173.83,97.25l.05-.25h-16.02v.25h15.98ZM234.17,215.67c-1.11.27-2.19.45-2.19.55.16,2.25-1.79,1.79-3.27,2.45h7.94c0-.08,0-.15,0-.23-1.28-.1-2.56-.2-4.38-.35.66-.85,1.07-1.38,1.89-2.43ZM72.4,191.74c-1.42.13-2.43.23-3.95.37.97,1.31,1.71,2.31,2.59,3.5.54-1.53.9-2.58,1.36-3.87ZM51.75,192.88c.22.17.45.34.67.51,1.64-2.2,3.28-4.4,4.92-6.59l-.5-.37c-1.7,2.15-3.39,4.31-5.09,6.46ZM137.25,256.46c1.51,2.39,2.82,2.48,4.11,0h-4.11ZM59.31,238.1c-.18,0-.36,0-.54-.01v9.43c.18,0,.36.01.54.02v-9.43ZM69.42,160.69c.18-.19.36-.37.54-.56-1.27-1.13-2.53-2.25-3.8-3.38.24,2.05,1.28,3.4,3.26,3.94ZM54.47,97c.22.21.43.41.65.62,1.07-1.15,2.14-2.29,3.2-3.44-2.73-.51-2.87,1.58-3.85,2.82ZM115.61,202.64c0-.1,0-.19,0-.29h-5.34c0,.1,0,.19,0,.29h5.34ZM313.47,202.66c.02-.11.04-.22.05-.33h-7.58c0,.11,0,.22-.01.33h7.54ZM74.9,57.91l.4-.72c-1.45-.83-2.9-1.66-4.91-2.82.72,3.28,3.32,2.28,4.51,3.54ZM131.86,257c.02-.33.05-.65.07-.98h-5.88c0,.18,0,.36,0,.55,1.94.15,3.88.29,5.81.44ZM246.03,261.77l-.12.72h4.54l-.02-.72h-4.4ZM82.57,96.29l.63-.72c-1.24-1.05-2.48-2.09-3.71-3.14-.19.22-.38.44-.57.65,1.22,1.07,2.44,2.13,3.66,3.2Z"/>
    <path class="cls-7" d="M226.12,134.66h21.72c-2.91.49-2.17,2.75-2.18,4.62-.03,5.11,0,10.23,0,15.36h-7.29v-9.07h6.61c0-.28,0-.56,0-.84h-6.79v-7.95h-.61v7.83h-7.7v.83h7.49v9.32h-7.64c0,.22,0,.44,0,.66h15.74v13.9h-16.45c-.06-.79-.17-1.59-.17-2.39,0-9.44.01-18.89.03-28.33,0-2.97.02-2.97-2.74-3.95Z"/>
    <path class="cls-7" d="M208.22,134.99h16.82v9.41h-8.04v-8.12c-.22,0-.44,0-.66,0v8.36h-7.14v.79h6.88v9.32h-7.12v.76h16v13.77h-16.73v-34.29Z"/>
    <path class="cls-7" d="M187.54,169.26v-13.54h16.61v13.54h-16.61Z"/>
    <path class="cls-7" d="M182.09,172.34c1.21-.08,2.42-.23,3.62-.23,20.64-.01,41.27,0,61.91,0,1.48,0,3.17.41,3.55-2,.19.11.37.21.56.32-.1,1.28-.2,2.56-.3,3.93-18.73,0-37.18,0-55.62,0-3.39,0-6.79.06-10.18-.05-1.23-.04-2.45-.53-3.67-.82.05-.38.09-.75.14-1.13Z"/>
    <path class="cls-7" d="M216.88,145.66h8.11v9.04c-2.14,0-4.27.11-6.37-.07-.62-.05-1.63-.88-1.66-1.41-.18-2.45-.08-4.93-.08-7.56Z"/>
    <path class="cls-7" d="M263.06,175.77h-21.58c0-.13,0-.27,0-.4h21.67c-.03.13-.07.27-.1.4Z"/>
    <path class="cls-7" d="M292.82,253.61h-17.2c0-.15,0-.29,0-.44,1.65-.42,3.3-.84,5.08-1.29-.11.19-.24.43-.49.89,4.32-.92,8.47-1.04,12.59.84Z"/>
  </g>
  <g>
    <text class="cls-3" transform="translate(0 350.94)"><tspan class="cls-11" x="0" y="0">C</tspan><tspan class="cls-10" x="78.18" y="0">E</tspan><tspan class="cls-13" x="146.68" y="0">D</tspan><tspan class="cls-19" x="231.32" y="0">A</tspan><tspan class="cls-10" x="303.23" y="0">R</tspan></text>
    <text class="cls-2" transform="translate(5.91 396.94)"><tspan class="cls-14" x="0" y="0">A</tspan><tspan class="cls-16" x="32.51" y="0">N</tspan><tspan class="cls-20" x="70.42" y="0">D</tspan></text>
    <text class="cls-4" transform="translate(118.43 410.38)"><tspan class="cls-9" x="0" y="0">S</tspan><tspan class="cls-12" x="41.26" y="0">TO</tspan><tspan class="cls-17" x="150.67" y="0">N</tspan><tspan class="cls-18" x="208.86" y="0">E</tspan></text>
  </g>
  <text class="cls-5" transform="translate(60.41 443.08)"><tspan class="cls-1" x="0" y="0">CUS</tspan><tspan class="cls-15" x="63.52" y="0">T</tspan><tspan class="cls-6" x="82.05" y="0">OM HOMES</tspan></text>
  <rect class="cls-8" x="3.57" y="436.71" width="42.09" height="1"/>
  <rect class="cls-8" x="324.24" y="436.71" width="42.09" height="1"/>
</svg>